<svg width="114" height="23" viewBox="0 0 114 23" fill="none" xmlns="http://www.w3.org/2000/svg">
<path d="M10.1857 3.83724C10.5679 2.66091 12.2321 2.6609 12.6143 3.83723L13.6728 7.09493C13.8437 7.621 14.334 7.97718 14.8871 7.97718H18.3125C19.5493 7.97718 20.0636 9.55992 19.0629 10.2869L16.2918 12.3003C15.8443 12.6254 15.657 13.2017 15.828 13.7278L16.8864 16.9855C17.2687 18.1618 15.9223 19.14 14.9216 18.413L12.1505 16.3996C11.703 16.0745 11.097 16.0745 10.6495 16.3996L7.87835 18.413C6.87771 19.14 5.53134 18.1618 5.91356 16.9855L6.97205 13.7278C7.14298 13.2017 6.95573 12.6254 6.50822 12.3003L3.73706 10.2869C2.73641 9.55992 3.25068 7.97718 4.48754 7.97718H7.91289C8.46603 7.97718 8.95627 7.62101 9.1272 7.09493L10.1857 3.83724Z" fill="#FFAF26"/>
<path d="M32.9857 3.83724C33.3679 2.66091 35.0321 2.6609 35.4143 3.83723L36.4728 7.09493C36.6437 7.621 37.134 7.97718 37.6871 7.97718H41.1124C42.3493 7.97718 42.8636 9.55992 41.8629 10.2869L39.0918 12.3003C38.6443 12.6254 38.457 13.2017 38.6279 13.7278L39.6864 16.9855C40.0686 18.1618 38.7223 19.14 37.7216 18.413L34.9505 16.3996C34.503 16.0745 33.897 16.0745 33.4495 16.3996L30.6783 18.413C29.6777 19.14 28.3313 18.1618 28.7135 16.9855L29.772 13.7278C29.943 13.2017 29.7557 12.6254 29.3082 12.3003L26.537 10.2869C25.5364 9.55992 26.0507 7.97718 27.2875 7.97718H30.7129C31.266 7.97718 31.7563 7.62101 31.9272 7.09493L32.9857 3.83724Z" fill="#FFAF26"/>
<path d="M55.7857 3.83724C56.1679 2.66091 57.8321 2.6609 58.2143 3.83723L59.2728 7.09493C59.4437 7.621 59.934 7.97718 60.4871 7.97718H63.9125C65.1493 7.97718 65.6636 9.55992 64.6629 10.2869L61.8918 12.3003C61.4443 12.6254 61.257 13.2017 61.428 13.7278L62.4864 16.9855C62.8687 18.1618 61.5223 19.14 60.5217 18.413L57.7505 16.3996C57.303 16.0745 56.697 16.0745 56.2495 16.3996L53.4784 18.413C52.4777 19.14 51.1314 18.1618 51.5136 16.9855L52.5721 13.7278C52.743 13.2017 52.5557 12.6254 52.1082 12.3003L49.3371 10.2869C48.3364 9.55992 48.8507 7.97718 50.0875 7.97718H53.5129C54.066 7.97718 54.5563 7.62101 54.7272 7.09493L55.7857 3.83724Z" fill="#FFAF26"/>
<path d="M78.5857 3.83724C78.9679 2.66091 80.6321 2.6609 81.0143 3.83723L82.0728 7.09493C82.2437 7.621 82.734 7.97718 83.2871 7.97718H86.7125C87.9493 7.97718 88.4636 9.55992 87.4629 10.2869L84.6918 12.3003C84.2443 12.6254 84.057 13.2017 84.2279 13.7278L85.2864 16.9855C85.6686 18.1618 84.3223 19.14 83.3216 18.413L80.5505 16.3996C80.103 16.0745 79.497 16.0745 79.0495 16.3996L76.2783 18.413C75.2777 19.14 73.9313 18.1618 74.3136 16.9855L75.372 13.7278C75.543 13.2017 75.3557 12.6254 74.9082 12.3003L72.1371 10.2869C71.1364 9.55992 71.6507 7.97718 72.8875 7.97718H76.3129C76.866 7.97718 77.3563 7.62101 77.5272 7.09493L78.5857 3.83724Z" fill="#FFAF26"/>
<path d="M101.386 3.83724C101.768 2.66091 103.432 2.6609 103.814 3.83723L104.873 7.09493C105.044 7.621 105.534 7.97718 106.087 7.97718H109.512C110.749 7.97718 111.264 9.55992 110.263 10.2869L107.492 12.3003C107.044 12.6254 106.857 13.2017 107.028 13.7278L108.086 16.9855C108.469 18.1618 107.122 19.14 106.122 18.413L103.35 16.3996C102.903 16.0745 102.297 16.0745 101.85 16.3996L99.0784 18.413C98.0777 19.14 96.7314 18.1618 97.1136 16.9855L98.1721 13.7278C98.343 13.2017 98.1557 12.6254 97.7082 12.3003L94.9371 10.2869C93.9364 9.55992 94.4507 7.97718 95.6876 7.97718H99.1129C99.666 7.97718 100.156 7.62101 100.327 7.09493L101.386 3.83724Z" fill="#FFAF26"/>
</svg>
