<svg width="85" height="84" viewBox="0 0 85 84" fill="none" xmlns="http://www.w3.org/2000/svg">
<path d="M11.7965 61.586C13.3085 66.248 17.904 69.223 22.8075 69.223H23C23.4499 71.4187 24.6439 73.3917 26.3804 74.8086C28.1169 76.2256 30.2893 76.9997 32.5305 77C34.13 77 35.6245 76.5975 36.9475 75.9045C37.4996 75.6018 37.9591 75.1546 38.2766 74.6108C38.5941 74.0671 38.7577 73.4472 38.75 72.8175V10.5945C38.7571 9.79268 38.4878 9.01286 37.9874 8.38626C37.487 7.75965 36.7861 7.32451 36.0025 7.15403C34.2466 6.81298 32.4272 7.06023 30.826 7.85753C28.222 9.10353 26.696 11.886 26.696 14.7805V14.973C24.7472 14.5753 22.7234 14.7848 20.8974 15.5732C19.0714 16.3616 17.5311 17.691 16.4843 19.3822C15.4375 21.0734 14.9345 23.0449 15.0431 25.0309C15.1518 27.0168 15.8669 28.9217 17.092 30.4885C14.3483 30.9184 11.8486 32.3148 10.0438 34.4256C8.23912 36.5365 7.24825 39.2229 7.25 42C7.25 46.123 9.3885 49.7385 12.6155 51.842C11.1105 54.5405 10.617 57.953 11.7965 61.586ZM67.408 30.4885C68.6331 28.9217 69.3482 27.0168 69.4569 25.0309C69.5655 23.0449 69.0625 21.0734 68.0157 19.3822C66.9689 17.691 65.4286 16.3616 63.6026 15.5732C61.7766 14.7848 59.7528 14.5753 57.804 14.973V14.7805C57.804 11.8895 56.2745 9.10353 53.6705 7.85753C52.0706 7.06 50.2523 6.81271 48.4975 7.15403C47.7143 7.32511 47.0137 7.76042 46.5134 8.38688C46.0131 9.01335 45.7436 9.79285 45.75 10.5945V72.814C45.75 74.0915 46.422 75.306 47.556 75.901C48.879 76.5975 50.37 77 51.9695 77C54.2112 76.9995 56.384 76.225 58.1206 74.8073C59.8571 73.3896 61.0508 71.4158 61.5 69.2195H61.696C66.596 69.2195 71.195 66.2445 72.707 61.5825C73.8865 57.9495 73.393 54.537 71.888 51.8385C73.5319 50.7764 74.8837 49.3197 75.8203 47.6012C76.7569 45.8828 77.2484 43.9572 77.25 42C77.2518 39.2229 76.2609 36.5365 74.4562 34.4256C72.6514 32.3148 70.1517 30.9184 67.408 30.4885Z" fill="#FFAF26"/>
</svg>
