<svg width="85" height="86" viewBox="0 0 85 86" fill="none" xmlns="http://www.w3.org/2000/svg">
<path d="M53.2999 14.8667C60.7613 14.8667 67.9172 17.8307 73.1932 23.1068C78.4692 28.3828 81.4332 35.5386 81.4332 43C81.4332 50.4614 78.4692 57.6172 73.1932 62.8932C67.9172 68.1693 60.7613 71.1333 53.2999 71.1333C45.8385 71.1333 38.6827 68.1693 33.4067 62.8932C28.1307 57.6172 25.1666 50.4614 25.1666 43C25.1666 35.5386 28.1307 28.3828 33.4067 23.1068C38.6827 17.8307 45.8385 14.8667 53.2999 14.8667ZM53.2999 21.9C47.7039 21.9 42.337 24.1231 38.38 28.0801C34.423 32.0371 32.2 37.4039 32.2 43C32.2 48.5961 34.423 53.9629 38.38 57.9199C42.337 61.877 47.7039 64.1 53.2999 64.1C58.896 64.1 64.2629 61.877 68.2199 57.9199C72.1769 53.9629 74.3999 48.5961 74.3999 43C74.3999 37.4039 72.1769 32.0371 68.2199 28.0801C64.2629 24.1231 58.896 21.9 53.2999 21.9ZM49.7833 28.9333H55.0583V42.2263L63.2521 50.4202L59.5244 54.1478L49.7833 44.4067V28.9333ZM7.58331 64.1C6.65064 64.1 5.75616 63.7295 5.09666 63.07C4.43715 62.4105 4.06665 61.516 4.06665 60.5833C4.06665 59.6506 4.43715 58.7562 5.09666 58.0967C5.75616 57.4372 6.65064 57.0667 7.58331 57.0667H21.0521C22.1423 59.5635 23.549 61.9196 25.1666 64.1H7.58331ZM11.1 46.5167C10.1673 46.5167 9.27282 46.1462 8.61332 45.4867C7.95382 44.8272 7.58331 43.9327 7.58331 43C7.58331 42.0673 7.95382 41.1728 8.61332 40.5133C9.27282 39.8538 10.1673 39.4833 11.1 39.4833H18.3091L18.1333 43L18.3091 46.5167H11.1ZM14.6166 28.9333C13.684 28.9333 12.7895 28.5628 12.13 27.9033C11.4705 27.2438 11.1 26.3494 11.1 25.4167C11.1 24.484 11.4705 23.5895 12.13 22.93C12.7895 22.2705 13.684 21.9 14.6166 21.9H25.1666C23.549 24.0804 22.1423 26.4365 21.0521 28.9333H14.6166Z" fill="#FFAF26"/>
</svg>
