<svg width="93" height="92" viewBox="0 0 93 92" fill="none" xmlns="http://www.w3.org/2000/svg">
<g filter="url(#filter0_d_55_416)">
<rect x="10" y="5" width="73.4797" height="73.4797" rx="25.8172" fill="url(#paint0_linear_55_416)"/>
<path d="M46.7371 29.2842C43.433 29.2842 40.2642 30.5967 37.9278 32.9331C35.5915 35.2695 34.2789 38.4383 34.2789 41.7424C34.2789 45.0465 35.5915 48.2153 37.9278 50.5517C40.2642 52.8881 43.433 54.2006 46.7371 54.2006C50.0413 54.2006 53.2101 52.8881 55.5464 50.5517C57.8828 48.2153 59.1954 45.0465 59.1954 41.7424C59.1954 38.4383 57.8828 35.2695 55.5464 32.9331C53.2101 30.5967 50.0413 29.2842 46.7371 29.2842ZM46.7371 49.8333C44.5906 49.8333 42.532 48.9805 41.0141 47.4627C39.4963 45.9449 38.6436 43.8863 38.6436 41.7397C38.6436 39.5932 39.4963 37.5346 41.0141 36.0167C42.532 34.4989 44.5906 33.6462 46.7371 33.6462C48.8837 33.6462 50.9423 34.4989 52.4601 36.0167C53.978 37.5346 54.8307 39.5932 54.8307 41.7397C54.8307 43.8863 53.978 45.9449 52.4601 47.4627C50.9423 48.9805 48.8837 49.8333 46.7371 49.8333Z" fill="#FFF0F4"/>
<path d="M59.6884 31.7306C61.2925 31.7306 62.5928 30.4302 62.5928 28.8262C62.5928 27.2221 61.2925 25.9218 59.6884 25.9218C58.0844 25.9218 56.784 27.2221 56.784 28.8262C56.784 30.4302 58.0844 31.7306 59.6884 31.7306Z" fill="#FFF0F4"/>
<path d="M69.7299 25.8734C69.1062 24.2627 68.153 22.8 66.9315 21.5789C65.7099 20.3578 64.2469 19.4052 62.6359 18.7821C60.7509 18.0745 58.7594 17.6918 56.7463 17.6505C54.1517 17.5373 53.33 17.505 46.7506 17.505C40.1712 17.505 39.3279 17.505 36.7549 17.6505C34.7434 17.6897 32.7533 18.0724 30.8707 18.7821C29.2593 19.4045 27.7959 20.3568 26.5742 21.578C25.3526 22.7992 24.3997 24.2623 23.7767 25.8734C23.0689 27.7583 22.6872 29.75 22.6478 31.763C22.532 34.3549 22.4969 35.1766 22.4969 41.7587C22.4969 48.3381 22.4969 49.176 22.6478 51.7544C22.6882 53.7697 23.0681 55.758 23.7767 57.6467C24.4014 59.2572 25.3553 60.7197 26.5772 61.9407C27.7992 63.1618 29.2624 64.1145 30.8734 64.738C32.7524 65.474 34.7433 65.8841 36.7603 65.9504C39.3549 66.0635 40.1766 66.0986 46.756 66.0986C53.3354 66.0986 54.1787 66.0986 56.7517 65.9504C58.7646 65.9095 60.756 65.5278 62.6413 64.8215C64.2518 64.1969 65.7145 63.2435 66.9359 62.0221C68.1573 60.8007 69.1107 59.338 69.7353 57.7275C70.4439 55.8415 70.8238 53.8532 70.8642 51.8379C70.98 49.246 71.0151 48.4243 71.0151 41.8422C71.0151 35.2601 71.0151 34.4249 70.8642 31.8465C70.8328 29.805 70.4491 27.7843 69.7299 25.8734ZM66.4483 51.555C66.4309 53.1077 66.1475 54.6459 65.6104 56.1029C65.2058 57.1506 64.5864 58.102 63.792 58.896C62.9976 59.6899 62.0458 60.3088 60.9978 60.7128C59.557 61.2474 58.0351 61.5308 56.4984 61.5507C53.9389 61.6692 53.2168 61.6989 46.6536 61.6989C40.085 61.6989 39.4142 61.6989 36.8061 61.5507C35.2702 61.5319 33.749 61.2484 32.3094 60.7128C31.2578 60.3113 30.3022 59.6935 29.5044 58.8994C28.7066 58.1053 28.0844 57.1526 27.678 56.1029C27.1484 54.6616 26.8652 53.1415 26.8401 51.6062C26.7242 49.0466 26.6973 48.3246 26.6973 41.7614C26.6973 35.1955 26.6973 34.5246 26.8401 31.9139C26.8575 30.362 27.1409 28.8247 27.678 27.3687C28.4997 25.2429 30.1836 23.5698 32.3094 22.7561C33.7497 22.223 35.2705 21.9396 36.8061 21.9182C39.3684 21.8023 40.0877 21.77 46.6536 21.77C53.2195 21.77 53.8931 21.77 56.4984 21.9182C58.0353 21.9367 59.5574 22.2201 60.9978 22.7561C62.0457 23.161 62.9974 23.7805 63.7917 24.5748C64.586 25.3692 65.2055 26.3208 65.6104 27.3687C66.14 28.81 66.4232 30.3301 66.4483 31.8654C66.5642 34.4276 66.5938 35.147 66.5938 41.7129C66.5938 48.2761 66.5938 48.982 66.4779 51.5577H66.4483V51.555Z" fill="#FFF0F4"/>
</g>
<defs>
<filter id="filter0_d_55_416" x="0.982772" y="0.491386" width="91.5141" height="91.5141" filterUnits="userSpaceOnUse" color-interpolation-filters="sRGB">
<feFlood flood-opacity="0" result="BackgroundImageFix"/>
<feColorMatrix in="SourceAlpha" type="matrix" values="0 0 0 0 0 0 0 0 0 0 0 0 0 0 0 0 0 0 127 0" result="hardAlpha"/>
<feOffset dy="4.50861"/>
<feGaussianBlur stdDeviation="4.50861"/>
<feComposite in2="hardAlpha" operator="out"/>
<feColorMatrix type="matrix" values="0 0 0 0 0 0 0 0 0 0 0 0 0 0 0 0 0 0 0.08 0"/>
<feBlend mode="normal" in2="BackgroundImageFix" result="effect1_dropShadow_55_416"/>
<feBlend mode="normal" in="SourceGraphic" in2="effect1_dropShadow_55_416" result="shape"/>
</filter>
<linearGradient id="paint0_linear_55_416" x1="62.538" y1="-3.45016" x2="15.511" y2="78.4797" gradientUnits="userSpaceOnUse">
<stop stop-color="#0043E6"/>
<stop offset="0.498741" stop-color="#FF2392"/>
<stop offset="1" stop-color="#FFBF3A"/>
</linearGradient>
</defs>
</svg>
