<svg xmlns="http://www.w3.org/2000/svg" width="98" height="99" viewBox="0 0 98 99" fill="none">
  <g filter="url(#filter0_d_55_441)">
    <rect x="7" y="4" width="84" height="84" rx="26" fill="#2BABEE"/>
    <path d="M20.898 43.2334C36.1239 36.6012 46.2745 32.2288 51.3498 30.1159C65.8577 24.0835 68.8686 23.0358 70.8351 23.0003C71.2676 22.9934 72.2304 23.1003 72.8587 23.6082C73.3809 24.0366 73.5278 24.6159 73.6012 25.0227C73.6665 25.429 73.7563 26.3552 73.6828 27.0781C72.8995 35.3357 69.4969 55.3742 67.7671 64.6232C67.0409 68.5365 65.5966 69.8486 64.2013 69.9767C61.1659 70.2558 58.8649 67.9727 55.9274 66.0478C51.3335 63.0345 48.7387 61.1594 44.2754 58.2195C39.1185 54.8218 42.464 52.954 45.4014 49.9023C46.1684 49.1035 59.534 36.9497 59.7869 35.8473C59.8196 35.7094 59.8522 35.1953 59.5421 34.9244C59.2402 34.6527 58.7914 34.7457 58.4651 34.8192C58 34.9236 50.6644 39.777 36.434 49.3785C34.3533 50.8097 32.4684 51.5073 30.7712 51.4706C28.9108 51.4306 25.3205 50.4164 22.6523 49.5498C19.3884 48.4866 16.7855 47.9244 17.014 46.1187C17.1282 45.1787 18.4256 44.2167 20.898 43.2334Z" fill="white"/>
  </g>
  <defs>
    <filter id="filter0_d_55_441" x="0.279997" y="0.639999" width="97.44" height="97.44" filterUnits="userSpaceOnUse" color-interpolation-filters="sRGB">
      <feFlood flood-opacity="0" result="BackgroundImageFix"/>
      <feColorMatrix in="SourceAlpha" type="matrix" values="0 0 0 0 0 0 0 0 0 0 0 0 0 0 0 0 0 0 127 0" result="hardAlpha"/>
      <feOffset dy="3.36"/>
      <feGaussianBlur stdDeviation="3.36"/>
      <feComposite in2="hardAlpha" operator="out"/>
      <feColorMatrix type="matrix" values="0 0 0 0 0 0 0 0 0 0 0 0 0 0 0 0 0 0 0.08 0"/>
      <feBlend mode="normal" in2="BackgroundImageFix" result="effect1_dropShadow_55_441"/>
      <feBlend mode="normal" in="SourceGraphic" in2="effect1_dropShadow_55_441" result="shape"/>
    </filter>
  </defs>
</svg>