<svg width="57" height="57" viewBox="0 0 57 57" fill="none" xmlns="http://www.w3.org/2000/svg">
<g filter="url(#filter0_d_55_404)">
<rect x="3" y="2" width="50.6179" height="50.6179" rx="11.7506" fill="#00E632"/>
<path fill-rule="evenodd" clip-rule="evenodd" d="M40.1929 15.4919C38.6493 13.9382 36.8129 12.7062 34.7898 11.8674C32.7668 11.0285 30.5974 10.5995 28.4073 10.605C19.2239 10.605 11.748 18.0791 11.7443 27.2663C11.7443 30.2024 12.5108 33.0681 13.9677 35.5959L11.6051 44.2281L20.4377 41.91C22.8809 43.24 25.6182 43.9374 28.3999 43.9386H28.4073C37.5889 43.9386 45.0648 36.4645 45.0686 27.2774C45.0749 25.0882 44.6472 22.9195 43.8103 20.8966C42.9735 18.8737 41.744 17.0367 40.1929 15.4919ZM28.4073 41.1268H28.4018C25.9213 41.127 23.4864 40.4597 21.3527 39.1947L20.8479 38.894L15.6066 40.2693L17.0041 35.1598L16.6756 34.6364C15.2888 32.4285 14.5547 29.8735 14.558 27.2663C14.5617 19.6307 20.7737 13.4187 28.4129 13.4187C30.2322 13.4147 32.0343 13.7715 33.7148 14.4686C35.3953 15.1656 36.9209 16.189 38.2032 17.4796C39.4925 18.764 40.5143 20.2912 41.2097 21.973C41.9052 23.6547 42.2604 25.4576 42.2549 27.2774C42.2512 34.9129 36.0392 41.1268 28.4073 41.1268ZM36.0039 30.7537C35.5863 30.5439 33.541 29.538 33.1587 29.3988C32.7782 29.2596 32.5017 29.1909 32.2233 29.6067C31.9449 30.0224 31.1468 30.9597 30.9036 31.2381C30.6605 31.5165 30.4174 31.5499 30.0016 31.342C29.5859 31.1341 28.244 30.6943 26.6534 29.2763C25.4155 28.172 24.5803 26.8097 24.3372 26.3921C24.094 25.9745 24.3112 25.7499 24.5209 25.542C24.7084 25.3564 24.9366 25.0558 25.1445 24.8126C25.3524 24.5695 25.4211 24.3969 25.5603 24.1185C25.6995 23.8401 25.6308 23.597 25.525 23.3891C25.4211 23.1794 24.5877 21.1303 24.2406 20.297C23.9047 19.4897 23.5614 19.5973 23.3052 19.5862C23.04 19.5753 22.7745 19.5704 22.509 19.5713C22.2979 19.5767 22.0902 19.6256 21.8989 19.7151C21.7076 19.8045 21.5368 19.9325 21.3973 20.091C21.0149 20.5086 19.9403 21.5145 19.9403 23.5636C19.9403 25.6126 21.4325 27.5929 21.6404 27.8713C21.8483 28.1497 24.5766 32.3535 28.7526 34.1575C29.7474 34.5863 30.5232 34.8424 31.1264 35.0354C32.123 35.3528 33.0306 35.3064 33.7489 35.2006C34.5488 35.0818 36.2118 34.1947 36.5588 33.2221C36.9059 32.2496 36.9059 31.4162 36.802 31.2418C36.698 31.0673 36.4178 30.9615 36.0039 30.7537Z" fill="#FFF0F4"/>
</g>
<defs>
<filter id="filter0_d_55_404" x="0.589622" y="0.794811" width="55.4386" height="55.4387" filterUnits="userSpaceOnUse" color-interpolation-filters="sRGB">
<feFlood flood-opacity="0" result="BackgroundImageFix"/>
<feColorMatrix in="SourceAlpha" type="matrix" values="0 0 0 0 0 0 0 0 0 0 0 0 0 0 0 0 0 0 127 0" result="hardAlpha"/>
<feOffset dy="1.20519"/>
<feGaussianBlur stdDeviation="1.20519"/>
<feComposite in2="hardAlpha" operator="out"/>
<feColorMatrix type="matrix" values="0 0 0 0 0 0 0 0 0 0 0 0 0 0 0 0 0 0 0.08 0"/>
<feBlend mode="normal" in2="BackgroundImageFix" result="effect1_dropShadow_55_404"/>
<feBlend mode="normal" in="SourceGraphic" in2="effect1_dropShadow_55_404" result="shape"/>
</filter>
</defs>
</svg>
