<svg width="238" height="37" viewBox="0 0 238 37" fill="none" xmlns="http://www.w3.org/2000/svg">
<path d="M17.1938 29.4875C23.0488 29.4875 27.7952 24.7411 27.7952 18.8861C27.7952 13.0311 23.0488 8.28467 17.1938 8.28467C11.3388 8.28467 6.59241 13.0311 6.59241 18.8861C6.59241 24.7411 11.3388 29.4875 17.1938 29.4875Z" stroke="#FFEDF3" stroke-width="1.78174"/>
<path fill-rule="evenodd" clip-rule="evenodd" d="M17.1938 36.0805C26.6897 36.0805 34.3877 28.3826 34.3877 18.8867H32.695C32.695 27.4478 25.7549 34.3879 17.1938 34.3879C8.63277 34.3879 1.69266 27.4478 1.69266 18.8867C1.69266 10.3256 8.63277 3.38553 17.1938 3.38553V1.69287C7.69794 1.69287 0 9.39081 0 18.8867C0 28.3826 7.69794 36.0805 17.1938 36.0805Z" fill="#FFEDF3"/>
<path d="M34.3877 18.8867C34.3877 9.39081 26.6897 1.69287 17.1938 1.69287V3.38553C25.7549 3.38553 32.695 10.3256 32.695 18.8867H34.3877Z" fill="url(#paint0_linear_338_319)"/>
<path d="M17.862 20.2227H16.5257C16.4027 20.2227 16.303 20.3224 16.303 20.4454V35.8574C16.303 35.9804 16.4027 36.0802 16.5257 36.0802H17.862C17.985 36.0802 18.0847 35.9804 18.0847 35.8574V20.4454C18.0847 20.3224 17.985 20.2227 17.862 20.2227Z" fill="#FFEDF3"/>
<path d="M17.1938 22.539C19.2111 22.539 20.8464 20.9037 20.8464 18.8865C20.8464 16.8692 19.2111 15.2339 17.1938 15.2339C15.1766 15.2339 13.5413 16.8692 13.5413 18.8865C13.5413 20.9037 15.1766 22.539 17.1938 22.539Z" fill="#FF2674"/>
<path d="M17.1938 5.16706C18.6207 5.16706 19.7774 4.01037 19.7774 2.58353C19.7774 1.15669 18.6207 0 17.1938 0C15.767 0 14.6103 1.15669 14.6103 2.58353C14.6103 4.01037 15.767 5.16706 17.1938 5.16706Z" fill="#FF2674"/>
<path d="M40.2688 30.54L52.3217 2.76775H52.6121L64.6649 30.54H58.5659L50.8695 11.0087L54.6814 8.39481L45.4603 30.54H40.2688ZM48.5098 20.8833H56.5329L58.3844 25.3123H46.8761L48.5098 20.8833ZM62.4039 3.82056H80.4105V8.90307H73.9121V30.54H68.6481V8.90307H62.4039V3.82056ZM83.3125 30.54V2.73145H83.3488L98.197 23.7876L95.9462 23.2793L110.758 2.73145H110.831V30.54H105.567V14.6027L105.893 17.3255L96.8538 30.177H96.7812L87.4874 17.3255L88.395 14.8205V30.54H83.3125ZM120.278 20.6654C120.278 21.5125 120.533 22.3233 121.041 23.0978C121.549 23.8723 122.215 24.5015 123.038 24.9856C123.885 25.4696 124.804 25.7116 125.797 25.7116C126.886 25.7116 127.854 25.4696 128.701 24.9856C129.548 24.5015 130.214 23.8723 130.698 23.0978C131.206 22.3233 131.46 21.5125 131.46 20.6654V3.82056H136.651V20.7743C136.651 22.7347 136.167 24.4773 135.199 26.0021C134.231 27.5026 132.924 28.6886 131.278 29.5598C129.633 30.4069 127.805 30.8305 125.797 30.8305C123.812 30.8305 121.997 30.4069 120.351 29.5598C118.73 28.6886 117.435 27.5026 116.467 26.0021C115.498 24.4773 115.014 22.7347 115.014 20.7743V3.82056H120.278V20.6654ZM155.089 10.2826C154.072 9.72596 153.031 9.26611 151.966 8.90307C150.926 8.54004 149.946 8.35852 149.026 8.35852C147.888 8.35852 146.993 8.58843 146.339 9.04829C145.686 9.50813 145.359 10.1979 145.359 11.1176C145.359 11.7468 145.601 12.3156 146.085 12.8238C146.594 13.3079 147.235 13.7435 148.009 14.1308C148.808 14.518 149.631 14.8689 150.478 15.1836C151.253 15.474 152.015 15.8249 152.765 16.2364C153.54 16.6236 154.229 17.1198 154.834 17.7248C155.44 18.3057 155.924 19.0439 156.287 19.9394C156.65 20.8107 156.831 21.8877 156.831 23.1704C156.831 24.5257 156.48 25.7843 155.778 26.946C155.076 28.1077 154.048 29.0516 152.693 29.7777C151.337 30.4795 149.667 30.8305 147.683 30.8305C146.666 30.8305 145.625 30.7337 144.561 30.54C143.52 30.3222 142.491 30.0076 141.475 29.5961C140.458 29.1605 139.478 28.6159 138.534 27.9625L140.858 23.8602C141.487 24.32 142.164 24.7314 142.891 25.0945C143.641 25.4333 144.391 25.6995 145.141 25.8932C145.892 26.0868 146.581 26.1836 147.211 26.1836C147.84 26.1836 148.469 26.0989 149.098 25.9295C149.752 25.7359 150.284 25.4212 150.696 24.9856C151.131 24.5499 151.349 23.9449 151.349 23.1704C151.349 22.6379 151.168 22.1539 150.805 21.7182C150.466 21.2826 149.994 20.8833 149.389 20.5202C148.808 20.1572 148.167 19.8426 147.465 19.5763C146.642 19.2617 145.795 18.8987 144.924 18.4872C144.052 18.0758 143.229 17.5796 142.455 16.9988C141.705 16.3937 141.087 15.6555 140.603 14.7842C140.144 13.8887 139.914 12.7996 139.914 11.5169C139.914 9.96798 140.252 8.62473 140.93 7.48723C141.632 6.34971 142.612 5.45422 143.871 4.80076C145.129 4.12309 146.581 3.74795 148.227 3.67534C150.381 3.67534 152.124 3.92947 153.455 4.43772C154.81 4.94597 156.02 5.55103 157.085 6.2529L155.089 10.2826Z" fill="#FFEDF3"/>
<path d="M182.173 28.5796C181.738 28.8701 181.145 29.1968 180.394 29.5598C179.644 29.9229 178.761 30.2254 177.744 30.4674C176.752 30.7095 175.663 30.8305 174.477 30.8305C172.444 30.8063 170.604 30.4432 168.959 29.7414C167.337 29.0395 165.958 28.0835 164.82 26.8734C163.682 25.6632 162.799 24.2716 162.17 22.6984C161.565 21.1011 161.262 19.4069 161.262 17.6159C161.262 15.6555 161.577 13.8524 162.206 12.2067C162.86 10.5367 163.767 9.09669 164.929 7.88657C166.091 6.65224 167.458 5.69625 169.031 5.01858C170.629 4.34091 172.371 4.00208 174.259 4.00208C175.832 4.00208 177.26 4.2199 178.543 4.65554C179.826 5.06698 180.927 5.56313 181.846 6.14399L180.431 9.41132C179.705 8.92727 178.821 8.46743 177.78 8.03178C176.764 7.59614 175.626 7.37832 174.368 7.37832C173.085 7.37832 171.875 7.63244 170.737 8.14069C169.6 8.64895 168.596 9.36292 167.724 10.2826C166.853 11.2023 166.163 12.2793 165.655 13.5136C165.171 14.7237 164.929 16.0307 164.929 17.4344C164.929 18.8624 165.147 20.1935 165.582 21.4278C166.042 22.6379 166.684 23.6907 167.506 24.5862C168.354 25.4817 169.37 26.1836 170.556 26.6918C171.742 27.2001 173.073 27.4542 174.549 27.4542C175.881 27.4542 177.066 27.2485 178.107 26.8371C179.148 26.4256 180.007 25.9658 180.685 25.4575L182.173 28.5796ZM192.895 4.2925C194.226 4.2925 195.448 4.47402 196.562 4.83706C197.699 5.17589 198.679 5.69625 199.502 6.39812C200.349 7.07579 201.003 7.92287 201.463 8.93938C201.947 9.93168 202.189 11.0934 202.189 12.4245C202.189 13.4652 202.031 14.4817 201.717 15.474C201.426 16.4663 200.93 17.3739 200.228 18.1968C199.526 18.9955 198.607 19.6489 197.469 20.1572C196.356 20.6412 194.976 20.8833 193.331 20.8833H189.446V30.54H185.925V4.2925H192.895ZM193.258 17.507C194.299 17.507 195.158 17.3497 195.836 17.0351C196.537 16.7204 197.082 16.3211 197.469 15.837C197.856 15.3288 198.135 14.7842 198.304 14.2034C198.474 13.6225 198.558 13.078 198.558 12.5697C198.558 12.0373 198.462 11.4927 198.268 10.936C198.098 10.3552 197.808 9.82277 197.397 9.33872C197.009 8.85467 196.489 8.45533 195.836 8.14069C195.206 7.82606 194.432 7.66875 193.512 7.66875H189.446V17.507H193.258ZM197.578 19.5037L204.44 30.54H200.373L193.403 19.6126L197.578 19.5037ZM207.677 30.54V3.45752H207.713L221.472 22.9889L219.984 22.6984L233.707 3.45752H233.779V30.54H230.294V11.4443L230.512 13.2232L220.601 27.2364H220.529L210.472 13.2232L211.09 11.5895V30.54H207.677Z" fill="#FF2674"/>
<defs>
<linearGradient id="paint0_linear_338_319" x1="34.3877" y1="20.8243" x2="20.1782" y2="2.96236" gradientUnits="userSpaceOnUse">
<stop stop-color="#FFEDF3"/>
<stop offset="1" stop-color="#FF2674"/>
</linearGradient>
</defs>
</svg>
