<svg width="84" height="84" viewBox="0 0 84 84" fill="none" xmlns="http://www.w3.org/2000/svg">
<g filter="url(#filter0_d_23_621)">
<rect x="9" y="5" width="66.4797" height="66.4797" rx="23.3577" fill="url(#paint0_linear_23_621)"/>
<path d="M42.2374 26.9709C39.248 26.9709 36.3811 28.1584 34.2673 30.2722C32.1535 32.386 30.966 35.2529 30.966 38.2423C30.966 41.2316 32.1535 44.0986 34.2673 46.2124C36.3811 48.3262 39.248 49.5137 42.2374 49.5137C45.2268 49.5137 48.0937 48.3262 50.2075 46.2124C52.3213 44.0986 53.5088 41.2316 53.5088 38.2423C53.5088 35.2529 52.3213 32.386 50.2075 30.2722C48.0937 28.1584 45.2268 26.9709 42.2374 26.9709ZM42.2374 45.5623C40.2954 45.5623 38.4328 44.7909 37.0596 43.4176C35.6864 42.0444 34.9149 40.1819 34.9149 38.2398C34.9149 36.2978 35.6864 34.4353 37.0596 33.062C38.4328 31.6888 40.2954 30.9173 42.2374 30.9173C44.1795 30.9173 46.042 31.6888 47.4152 33.062C48.7884 34.4353 49.5599 36.2978 49.5599 38.2398C49.5599 40.1819 48.7884 42.0444 47.4152 43.4176C46.042 44.7909 44.1795 45.5623 42.2374 45.5623Z" fill="#FFF0F4"/>
<path d="M53.9549 29.1842C55.4061 29.1842 56.5826 28.0077 56.5826 26.5565C56.5826 25.1052 55.4061 23.9288 53.9549 23.9288C52.5036 23.9288 51.3271 25.1052 51.3271 26.5565C51.3271 28.0077 52.5036 29.1842 53.9549 29.1842Z" fill="#FFF0F4"/>
<path d="M63.0398 23.8849C62.4755 22.4276 61.6131 21.1043 60.5079 19.9995C59.4028 18.8947 58.0791 18.0329 56.6216 17.4692C54.9161 16.8289 53.1144 16.4828 51.293 16.4454C48.9457 16.343 48.2022 16.3137 42.2496 16.3137C36.297 16.3137 35.534 16.3137 33.2061 16.4454C31.3862 16.4808 29.5857 16.8271 27.8825 17.4692C26.4246 18.0322 25.1006 18.8938 23.9953 19.9987C22.89 21.1036 22.0279 22.4273 21.4643 23.8849C20.8239 25.5903 20.4786 27.3922 20.4429 29.2134C20.3381 31.5584 20.3064 32.3019 20.3064 38.2569C20.3064 44.2095 20.3064 44.9676 20.4429 47.3004C20.4795 49.1237 20.8232 50.9226 21.4643 52.6314C22.0295 54.0884 22.8925 55.4116 23.998 56.5163C25.1035 57.621 26.4274 58.483 27.8849 59.0471C29.5849 59.713 31.3862 60.084 33.211 60.144C35.5584 60.2464 36.3019 60.2781 42.2545 60.2781C48.2071 60.2781 48.97 60.2781 51.2979 60.144C53.119 60.107 54.9207 59.7616 56.6265 59.1227C58.0836 58.5576 59.4069 57.695 60.5119 56.5899C61.617 55.4849 62.4796 54.1616 63.0447 52.7045C63.6857 50.9982 64.0294 49.1992 64.066 47.3759C64.1708 45.031 64.2025 44.2875 64.2025 38.3325C64.2025 32.3774 64.2025 31.6218 64.066 29.289C64.0376 27.442 63.6905 25.6137 63.0398 23.8849ZM60.0708 47.12C60.0551 48.5248 59.7987 49.9165 59.3127 51.2346C58.9467 52.1825 58.3862 53.0433 57.6675 53.7616C56.9488 54.4799 56.0877 55.0398 55.1396 55.4053C53.836 55.8891 52.4591 56.1455 51.0688 56.1634C48.7531 56.2707 48.0998 56.2975 42.1618 56.2975C36.219 56.2975 35.612 56.2975 33.2525 56.1634C31.8629 56.1464 30.4866 55.89 29.1841 55.4053C28.2327 55.0421 27.3681 54.4832 26.6463 53.7647C25.9245 53.0463 25.3616 52.1843 24.9939 51.2346C24.5148 49.9306 24.2585 48.5553 24.2358 47.1663C24.131 44.8506 24.1066 44.1973 24.1066 38.2593C24.1066 32.3189 24.1066 31.712 24.2358 29.35C24.2516 27.946 24.508 26.5551 24.9939 25.2377C25.7374 23.3145 27.2609 21.8007 29.1841 21.0646C30.4872 20.5823 31.8631 20.3259 33.2525 20.3065C35.5706 20.2017 36.2214 20.1724 42.1618 20.1724C48.1022 20.1724 48.7116 20.1724 51.0688 20.3065C52.4592 20.3232 53.8363 20.5797 55.1396 21.0646C56.0876 21.4309 56.9486 21.9914 57.6673 22.71C58.3859 23.4287 58.9464 24.2897 59.3127 25.2377C59.7918 26.5417 60.0481 27.917 60.0708 29.3061C60.1756 31.6242 60.2024 32.2751 60.2024 38.2155C60.2024 44.1534 60.2024 44.7921 60.0976 47.1224H60.0708V47.12Z" fill="#FFF0F4"/>
</g>
<defs>
<filter id="filter0_d_23_621" x="0.841793" y="0.920897" width="82.7961" height="82.7961" filterUnits="userSpaceOnUse" color-interpolation-filters="sRGB">
<feFlood flood-opacity="0" result="BackgroundImageFix"/>
<feColorMatrix in="SourceAlpha" type="matrix" values="0 0 0 0 0 0 0 0 0 0 0 0 0 0 0 0 0 0 127 0" result="hardAlpha"/>
<feOffset dy="4.0791"/>
<feGaussianBlur stdDeviation="4.0791"/>
<feComposite in2="hardAlpha" operator="out"/>
<feColorMatrix type="matrix" values="0 0 0 0 0 0 0 0 0 0 0 0 0 0 0 0 0 0 0.08 0"/>
<feBlend mode="normal" in2="BackgroundImageFix" result="effect1_dropShadow_23_621"/>
<feBlend mode="normal" in="SourceGraphic" in2="effect1_dropShadow_23_621" result="shape"/>
</filter>
<linearGradient id="paint0_linear_23_621" x1="56.533" y1="-2.64516" x2="13.986" y2="71.4797" gradientUnits="userSpaceOnUse">
<stop stop-color="#0043E6"/>
<stop offset="0.498741" stop-color="#FF2392"/>
<stop offset="1" stop-color="#FFBF3A"/>
</linearGradient>
</defs>
</svg>
