<svg width="25" height="26" viewBox="0 0 25 26" fill="none" xmlns="http://www.w3.org/2000/svg">
<circle cx="12.3901" cy="13.6098" r="7.63951" stroke="#3D3D3D" stroke-width="1.28395"/>
<path fill-rule="evenodd" clip-rule="evenodd" d="M12.3901 26C19.233 26 24.7802 20.4528 24.7802 13.6099H23.5605C23.5605 19.7791 18.5593 24.7803 12.3901 24.7803C6.2209 24.7803 1.21975 19.7791 1.21975 13.6099C1.21975 7.44068 6.2209 2.43954 12.3901 2.43954V1.21979C5.54725 1.21979 0 6.76703 0 13.6099C0 20.4528 5.54725 26 12.3901 26Z" fill="#3D3D3D"/>
<path d="M24.7802 13.6099C24.7802 6.76703 19.233 1.21979 12.3901 1.21979V2.43954C18.5593 2.43954 23.5605 7.44068 23.5605 13.6099H24.7802Z" fill="url(#paint0_linear_160_311)"/>
<rect x="11.7482" y="14.5728" width="1.28395" height="11.4272" rx="0.160494" fill="#3D3D3D"/>
<circle cx="12.3902" cy="13.6099" r="2.6321" fill="#FF2674"/>
<circle cx="12.3902" cy="1.86173" r="1.86173" fill="#FF2674"/>
<defs>
<linearGradient id="paint0_linear_160_311" x1="24.7802" y1="15.0062" x2="14.5407" y2="2.1346" gradientUnits="userSpaceOnUse">
<stop/>
<stop offset="1" stop-color="#FF2674"/>
</linearGradient>
</defs>
</svg>
