<svg width="172" height="26" viewBox="0 0 172 26" fill="none" xmlns="http://www.w3.org/2000/svg">
<circle cx="12.3901" cy="13.6098" r="7.63951" stroke="#292929" stroke-width="1.28395"/>
<path fill-rule="evenodd" clip-rule="evenodd" d="M12.3901 26C19.233 26 24.7802 20.4528 24.7802 13.6099H23.5605C23.5605 19.7791 18.5593 24.7803 12.3901 24.7803C6.2209 24.7803 1.21975 19.7791 1.21975 13.6099C1.21975 7.44068 6.2209 2.43954 12.3901 2.43954V1.21979C5.54725 1.21979 0 6.76703 0 13.6099C0 20.4528 5.54725 26 12.3901 26Z" fill="#292929"/>
<path d="M24.7802 13.6099C24.7802 6.76703 19.233 1.21979 12.3901 1.21979V2.43954C18.5593 2.43954 23.5605 7.44068 23.5605 13.6099H24.7802Z" fill="url(#paint0_linear_160_143)"/>
<rect x="11.7482" y="14.5728" width="1.28395" height="11.4272" rx="0.160494" fill="#292929"/>
<circle cx="12.3901" cy="13.6099" r="2.6321" fill="#FF2674"/>
<circle cx="12.3901" cy="1.86173" r="1.86173" fill="#FF2674"/>
<path d="M29.0183 22L37.7038 1.98687H37.9131L46.5985 22H42.2035L36.6573 7.9254L39.4042 6.04182L32.7594 22H29.0183ZM34.9569 15.0412H40.7384L42.0727 18.2328H33.7796L34.9569 15.0412ZM44.9692 2.74553H57.945V6.40807H53.2622V22H49.4688V6.40807H44.9692V2.74553ZM60.0362 22V1.96071H60.0624L70.7622 17.1341L69.1403 16.7678L79.8139 1.96071H79.8662V22H76.0729V10.5153L76.3084 12.4774L69.7943 21.7384H69.742L63.0448 12.4774L63.6988 10.6723V22H60.0362ZM86.6744 14.8842C86.6744 15.4946 86.8576 16.0789 87.2238 16.637C87.5901 17.1951 88.0697 17.6486 88.6627 17.9974C89.2731 18.3462 89.9358 18.5206 90.6509 18.5206C91.4357 18.5206 92.1334 18.3462 92.7438 17.9974C93.3542 17.6486 93.8338 17.1951 94.1826 16.637C94.5489 16.0789 94.732 15.4946 94.732 14.8842V2.74553H98.473V14.9627C98.473 16.3754 98.1242 17.6311 97.4266 18.7299C96.729 19.8112 95.7872 20.6658 94.6012 21.2937C93.4152 21.9041 92.0985 22.2093 90.6509 22.2093C89.2208 22.2093 87.9127 21.9041 86.7268 21.2937C85.5582 20.6658 84.6252 19.8112 83.9275 18.7299C83.2299 17.6311 82.8811 16.3754 82.8811 14.9627V2.74553H86.6744V14.8842ZM111.759 7.40219C111.027 7.00105 110.277 6.66968 109.509 6.40807C108.759 6.14646 108.053 6.01566 107.39 6.01566C106.571 6.01566 105.925 6.18134 105.454 6.51271C104.983 6.84409 104.748 7.34114 104.748 8.00389C104.748 8.45734 104.922 8.8672 105.271 9.23345C105.637 9.58226 106.1 9.8962 106.658 10.1752C107.233 10.4543 107.826 10.7072 108.437 10.9339C108.995 11.1432 109.544 11.3961 110.085 11.6926C110.643 11.9716 111.14 12.3292 111.576 12.7652C112.012 13.1838 112.361 13.7157 112.622 14.361C112.884 14.9889 113.015 15.765 113.015 16.6893C113.015 17.666 112.762 18.5729 112.256 19.4101C111.75 20.2472 111.009 20.9274 110.032 21.4506C109.056 21.9564 107.852 22.2093 106.422 22.2093C105.69 22.2093 104.94 22.1395 104.172 22C103.422 21.843 102.681 21.6163 101.949 21.3198C101.216 21.0059 100.51 20.6135 99.8297 20.1426L101.504 17.1864C101.957 17.5178 102.446 17.8142 102.969 18.0759C103.51 18.32 104.05 18.5119 104.591 18.6514C105.132 18.7909 105.629 18.8607 106.082 18.8607C106.536 18.8607 106.989 18.7996 107.443 18.6776C107.913 18.538 108.297 18.3113 108.594 17.9974C108.908 17.6834 109.065 17.2474 109.065 16.6893C109.065 16.3056 108.934 15.9568 108.672 15.6429C108.428 15.329 108.088 15.0412 107.652 14.7796C107.233 14.518 106.771 14.2912 106.265 14.0994C105.672 13.8727 105.062 13.6111 104.434 13.3146C103.806 13.0181 103.213 12.6605 102.655 12.242C102.114 11.8059 101.67 11.274 101.321 10.6461C100.99 10.0008 100.824 9.21601 100.824 8.29166C100.824 7.17546 101.068 6.2075 101.556 5.38779C102.062 4.56808 102.768 3.92278 103.675 3.45188C104.582 2.96354 105.629 2.69321 106.815 2.64089C108.367 2.64089 109.623 2.82402 110.582 3.19027C111.559 3.55652 112.431 3.99254 113.198 4.49832L111.759 7.40219Z" fill="#292929"/>
<path d="M131.559 20.5873C131.245 20.7966 130.818 21.032 130.277 21.2937C129.737 21.5553 129.1 21.7733 128.368 21.9477C127.653 22.1221 126.868 22.2093 126.013 22.2093C124.548 22.1918 123.223 21.9302 122.037 21.4245C120.868 20.9187 119.874 20.2298 119.054 19.3577C118.235 18.4857 117.598 17.4829 117.145 16.3492C116.709 15.1982 116.49 13.9773 116.49 12.6867C116.49 11.274 116.717 9.97468 117.171 8.78872C117.642 7.58531 118.296 6.54759 119.133 5.67556C119.97 4.78609 120.955 4.09718 122.089 3.60885C123.24 3.12051 124.496 2.87634 125.856 2.87634C126.99 2.87634 128.019 3.03331 128.943 3.34724C129.867 3.64373 130.661 4.00126 131.324 4.41984L130.303 6.77432C129.78 6.42551 129.144 6.09414 128.394 5.78021C127.661 5.46627 126.842 5.30931 125.935 5.30931C125.01 5.30931 124.138 5.49244 123.319 5.85869C122.499 6.22494 121.775 6.73944 121.147 7.40219C120.519 8.06493 120.022 8.84104 119.656 9.73051C119.307 10.6025 119.133 11.5443 119.133 12.5559C119.133 13.5849 119.29 14.5441 119.604 15.4336C119.935 16.3056 120.397 17.0643 120.99 17.7096C121.601 18.3549 122.333 18.8607 123.188 19.2269C124.042 19.5932 125.002 19.7763 126.065 19.7763C127.025 19.7763 127.879 19.6281 128.629 19.3316C129.379 19.0351 129.998 18.7037 130.487 18.3375L131.559 20.5873ZM139.285 3.08563C140.245 3.08563 141.125 3.21643 141.928 3.47804C142.747 3.72221 143.454 4.09718 144.047 4.60296C144.657 5.0913 145.128 5.70172 145.459 6.43423C145.808 7.1493 145.983 7.98645 145.983 8.94568C145.983 9.69563 145.869 10.4281 145.643 11.1432C145.433 11.8583 145.076 12.5123 144.57 13.1053C144.064 13.6808 143.401 14.1517 142.582 14.518C141.779 14.8668 140.785 15.0412 139.599 15.0412H136.8V22H134.263V3.08563H139.285ZM139.547 12.6082C140.297 12.6082 140.916 12.4949 141.405 12.2681C141.91 12.0414 142.303 11.7536 142.582 11.4048C142.861 11.0386 143.061 10.6461 143.183 10.2276C143.306 9.80899 143.367 9.41658 143.367 9.05033C143.367 8.66663 143.297 8.27422 143.157 7.87308C143.035 7.45451 142.826 7.07081 142.529 6.722C142.25 6.37319 141.875 6.08542 141.405 5.85869C140.951 5.63196 140.393 5.5186 139.73 5.5186H136.8V12.6082H139.547ZM142.66 14.0471L147.605 22H144.675L139.652 14.1256L142.66 14.0471ZM149.938 22V2.48392H149.964L159.879 16.5585L158.806 16.3492L168.695 2.48392H168.747V22H166.236V8.23934L166.393 9.52122L159.251 19.6194H159.199L151.952 9.52122L152.397 8.34398V22H149.938Z" fill="#FF2674"/>
<defs>
<linearGradient id="paint0_linear_160_143" x1="24.7802" y1="15.0062" x2="14.5407" y2="2.1346" gradientUnits="userSpaceOnUse">
<stop/>
<stop offset="1" stop-color="#FF2674"/>
</linearGradient>
</defs>
</svg>
