<svg width="88" height="89" viewBox="0 0 88 89" fill="none" xmlns="http://www.w3.org/2000/svg">
<g filter="url(#filter0_d_23_634)">
<rect x="6.2561" y="3.52435" width="75.4634" height="75.4634" rx="23.3577" fill="#F6F8FF"/>
<path d="M66.8432 29.6347C65.7421 27.6877 64.1691 26.049 62.2689 24.8692C60.3686 23.6894 58.2022 23.0065 55.9689 22.8832C53.3371 22.9994 50.8381 24.0718 48.9407 25.8992C47.3719 27.3198 45.9617 28.9062 44.7349 30.6308C43.4073 28.8866 41.8951 27.2909 40.2247 25.8716C38.0157 23.947 35.1855 22.8857 32.2558 22.8832C29.9178 23.0495 27.6604 23.8071 25.6954 25.0848C23.7304 26.3625 22.1222 28.1186 21.0218 30.1881C17.9533 35.1826 16.3254 40.9282 16.3179 46.79C16.3044 48.317 16.4716 49.8402 16.8159 51.3279C17.0938 52.6546 17.5894 53.9261 18.2825 55.091C19.1177 56.5277 20.3369 57.7032 21.8033 58.4852C23.2696 59.2673 24.925 59.625 26.5834 59.5182C30.0422 59.5182 32.6431 57.9687 35.7145 53.9842C38.0157 50.8325 40.0605 47.5014 41.8296 44.023L43.5728 40.924C43.7388 40.675 43.8771 40.426 44.0155 40.1769L44.4305 40.8687L49.3834 49.1696C50.9687 51.9371 52.8724 54.5094 55.0558 56.8342C55.9737 57.7623 57.0756 58.4879 58.2908 58.9645C59.506 59.441 60.8075 59.6579 62.1116 59.6012C63.4724 59.6539 64.8252 59.3711 66.0509 58.7775C67.2765 58.184 68.3373 57.2981 69.1398 56.1978C69.3251 55.9525 69.4916 55.6935 69.6378 55.423C69.9731 54.8676 70.26 54.2844 70.4956 53.6798L70.8276 52.7114C71.1989 51.6871 71.4767 50.6314 71.6577 49.557C71.709 48.6354 71.709 47.7117 71.6577 46.79C71.7751 40.7225 70.1003 34.7552 66.8432 29.6347ZM38.8412 39.4852C37.0703 42.2522 34.497 46.4303 32.2834 49.474C29.5164 53.2648 28.1053 53.6522 26.5558 53.6522C25.9097 53.6643 25.2725 53.5008 24.7121 53.1792C24.1517 52.8576 23.6892 52.3899 23.3737 51.826C22.5987 50.3832 22.2259 48.7584 22.2946 47.1221C22.2327 42.1375 23.5545 37.2334 26.113 32.9551C26.7112 31.8315 27.5771 30.8725 28.634 30.1631C29.6909 29.4537 30.9063 29.0156 32.1728 28.8876C33.4025 28.945 34.604 29.2752 35.6903 29.8543C36.7767 30.4333 37.7206 31.2468 38.4538 32.2357C39.4462 33.3888 40.3701 34.5991 41.2208 35.8604L38.8412 39.4852ZM62.1393 53.6522C60.8111 53.6522 59.7873 53.1264 58.3208 51.3556C55.9362 48.1281 53.7553 44.7551 51.7907 41.2561L50.3519 38.8764C49.3558 37.1886 48.3873 35.6667 47.5849 34.3109C47.7254 34.052 47.8825 33.8024 48.0553 33.5638C50.6563 29.7177 52.9529 27.5594 55.8029 27.5594C57.2442 27.6863 58.6305 28.1735 59.8344 28.9761C61.0383 29.7787 62.0212 30.871 62.6927 32.1526C65.2926 36.6349 66.6044 41.7481 66.4835 46.9284C66.3728 50.5531 65.5427 53.6522 62.1393 53.6522Z" fill="#265CFF"/>
</g>
<defs>
<filter id="filter0_d_23_634" x="0.219028" y="0.505815" width="87.5375" height="87.5376" filterUnits="userSpaceOnUse" color-interpolation-filters="sRGB">
<feFlood flood-opacity="0" result="BackgroundImageFix"/>
<feColorMatrix in="SourceAlpha" type="matrix" values="0 0 0 0 0 0 0 0 0 0 0 0 0 0 0 0 0 0 127 0" result="hardAlpha"/>
<feOffset dy="3.01854"/>
<feGaussianBlur stdDeviation="3.01854"/>
<feComposite in2="hardAlpha" operator="out"/>
<feColorMatrix type="matrix" values="0 0 0 0 0 0 0 0 0 0 0 0 0 0 0 0 0 0 0.08 0"/>
<feBlend mode="normal" in2="BackgroundImageFix" result="effect1_dropShadow_23_634"/>
<feBlend mode="normal" in="SourceGraphic" in2="effect1_dropShadow_23_634" result="shape"/>
</filter>
</defs>
</svg>
