<svg width="111" height="111" viewBox="0 0 111 111" fill="none" xmlns="http://www.w3.org/2000/svg">
<g filter="url(#filter0_d_23_627)">
<rect x="5" y="3" width="100.618" height="100.618" rx="23.3577" fill="#00E632"/>
<path fill-rule="evenodd" clip-rule="evenodd" d="M78.9317 29.8191C75.8635 26.7307 72.213 24.2818 68.1916 22.6144C64.1702 20.9469 59.8579 20.094 55.5045 20.1051C37.2497 20.1051 22.3892 34.962 22.3818 53.2241C22.3818 59.0606 23.9055 64.757 26.8016 69.7818L22.1051 86.9409L39.6626 82.3329C44.5192 84.9767 49.9602 86.3629 55.4898 86.3653H55.5045C73.7556 86.3653 88.6162 71.5084 88.6236 53.2463C88.6361 48.8947 87.786 44.5837 86.1225 40.5626C84.459 36.5415 82.0149 32.89 78.9317 29.8191ZM55.5045 80.776H55.4934C50.5627 80.7765 45.7228 79.4499 41.4814 76.9354L40.4779 76.3377L30.0593 79.0715L32.8373 68.9148L32.1843 67.8744C29.4276 63.4857 27.9683 58.4068 27.9748 53.2241C27.9822 38.0463 40.3303 25.6981 55.5156 25.6981C59.132 25.6901 62.7142 26.3994 66.0547 27.785C69.3952 29.1706 72.4277 31.2049 74.9768 33.7703C77.5394 36.3235 79.5707 39.3593 80.953 42.7022C82.3354 46.0451 83.0415 49.6288 83.0305 53.2463C83.0232 68.4241 70.675 80.776 55.5045 80.776ZM70.6049 60.1564C69.7748 59.7395 65.7092 57.7399 64.9492 57.4632C64.1929 57.1865 63.6432 57.05 63.0898 57.8764C62.5364 58.7028 60.95 60.5659 60.4666 61.1193C59.9833 61.6727 59.5 61.7391 58.6736 61.3259C57.8472 60.9127 55.1798 60.0383 52.0181 57.2197C49.5573 55.0245 47.8971 52.3166 47.4138 51.4865C46.9305 50.6564 47.3622 50.21 47.7791 49.7968C48.1517 49.4278 48.6055 48.8302 49.0187 48.3469C49.4319 47.8636 49.5684 47.5204 49.8451 46.967C50.1218 46.4136 49.9853 45.9303 49.775 45.5171C49.5684 45.1002 47.9119 41.0272 47.222 39.3707C46.5542 37.7659 45.8717 37.9799 45.3626 37.9577C44.8353 37.9362 44.3076 37.9263 43.7798 37.9282C43.3602 37.9389 42.9473 38.0362 42.567 38.2139C42.1867 38.3917 41.8473 38.6461 41.5699 38.9612C40.8099 39.7913 38.6738 41.7909 38.6738 45.8639C38.6738 49.937 41.64 53.8735 42.0532 54.4269C42.4664 54.9803 47.8897 63.3366 56.1907 66.9226C58.1682 67.7748 59.7103 68.284 60.9094 68.6676C62.8905 69.2985 64.6946 69.2063 66.1224 68.996C67.7125 68.7599 71.0181 66.9964 71.708 65.0632C72.3979 63.13 72.3979 61.4735 72.1913 61.1267C71.9847 60.7799 71.4276 60.5696 70.6049 60.1564Z" fill="#FFF0F4"/>
</g>
<defs>
<filter id="filter0_d_23_627" x="0.208667" y="0.604333" width="110.201" height="110.201" filterUnits="userSpaceOnUse" color-interpolation-filters="sRGB">
<feFlood flood-opacity="0" result="BackgroundImageFix"/>
<feColorMatrix in="SourceAlpha" type="matrix" values="0 0 0 0 0 0 0 0 0 0 0 0 0 0 0 0 0 0 127 0" result="hardAlpha"/>
<feOffset dy="2.39567"/>
<feGaussianBlur stdDeviation="2.39567"/>
<feComposite in2="hardAlpha" operator="out"/>
<feColorMatrix type="matrix" values="0 0 0 0 0 0 0 0 0 0 0 0 0 0 0 0 0 0 0.08 0"/>
<feBlend mode="normal" in2="BackgroundImageFix" result="effect1_dropShadow_23_627"/>
<feBlend mode="normal" in="SourceGraphic" in2="effect1_dropShadow_23_627" result="shape"/>
</filter>
</defs>
</svg>
