<svg width="70" height="202" viewBox="0 0 70 202" fill="none" xmlns="http://www.w3.org/2000/svg">
<g opacity="0.3">
<path d="M58.1445 170.657C57.6574 178.059 62.4467 188.753 64.1676 188.754C65.8886 188.754 68.8296 177.896 68.4698 170.657C68.172 164.663 65.8885 155.852 64.1676 155.852C62.4467 155.851 58.5521 164.466 58.1445 170.657Z" fill="#7C7C7C"/>
<path d="M64.1676 188.754L64.1674 189.619L64.1676 188.754ZM58.1445 170.657L57.2806 170.601L58.1445 170.657ZM64.1676 155.852L64.1678 154.986L64.1676 155.852ZM68.4698 170.657L69.3346 170.614L69.3346 170.614L68.4698 170.657ZM64.1678 187.888C64.2799 187.888 64.3198 187.928 64.2667 187.895C64.2195 187.866 64.1363 187.802 64.0193 187.68C63.7854 187.436 63.4964 187.048 63.1708 186.515C62.5238 185.456 61.8013 183.941 61.1386 182.176C59.8072 178.631 58.7764 174.24 59.0085 170.714L57.2806 170.601C57.0255 174.476 58.1458 179.133 59.5175 182.785C60.2063 184.619 60.9734 186.24 61.6932 187.418C62.051 188.004 62.4147 188.509 62.7702 188.879C62.9479 189.064 63.1436 189.237 63.3553 189.368C63.5613 189.495 63.8403 189.619 64.1674 189.619L64.1678 187.888ZM59.0085 170.714C59.2039 167.746 60.2448 164.142 61.4609 161.27C62.0678 159.837 62.7034 158.622 63.2743 157.78C63.5616 157.357 63.8127 157.057 64.0143 156.874C64.2461 156.663 64.2879 156.717 64.1674 156.717L64.1678 154.986C63.6171 154.986 63.1607 155.309 62.8486 155.593C62.5062 155.905 62.1675 156.327 61.8413 156.808C61.1853 157.775 60.4991 159.101 59.8663 160.595C58.6028 163.578 57.4927 167.378 57.2806 170.601L59.0085 170.714ZM64.1674 156.717C64.0097 156.717 64.0164 156.628 64.1912 156.822C64.3446 156.992 64.5354 157.282 64.7498 157.71C65.1749 158.559 65.6134 159.787 66.0183 161.239C66.8266 164.138 67.4597 167.775 67.6051 170.7L69.3346 170.614C69.1821 167.545 68.5246 163.78 67.6864 160.774C67.2681 159.274 66.7945 157.925 66.2981 156.934C66.0518 156.443 65.7795 155.997 65.4776 155.662C65.1969 155.351 64.7557 154.986 64.1678 154.986L64.1674 156.717ZM67.6051 170.7C67.7794 174.208 67.1516 178.642 66.259 182.21C65.8132 183.992 65.3104 185.521 64.8277 186.587C64.5843 187.125 64.3632 187.506 64.1806 187.738C63.9543 188.026 63.9473 187.888 64.1678 187.888L64.1674 189.619C64.8181 189.62 65.2796 189.142 65.5421 188.808C65.8484 188.418 66.1366 187.895 66.4052 187.301C66.9468 186.105 67.4794 184.467 67.939 182.63C68.8572 178.96 69.5201 174.346 69.3346 170.614L67.6051 170.7Z" fill="#7C7C7C"/>
<path d="M44.4837 151.663C42.8569 158.53 45.9263 169.346 47.6242 169.626C49.3221 169.907 53.9052 160.196 54.6713 153.344C55.3056 147.671 54.4171 139.03 52.7193 138.749C51.0214 138.469 45.8447 145.919 44.4837 151.663Z" fill="#7C7C7C"/>
<path d="M47.6242 169.626L47.4831 170.481L47.6242 169.626ZM44.4837 151.663L43.6412 151.464L44.4837 151.663ZM52.7193 138.749L52.8604 137.895L52.7193 138.749ZM54.6713 153.344L55.5318 153.441L55.5318 153.441L54.6713 153.344ZM47.7654 168.772C47.8652 168.789 47.8931 168.828 47.8462 168.789C47.8037 168.754 47.732 168.68 47.6364 168.548C47.445 168.283 47.2212 167.875 46.9834 167.324C46.5106 166.229 46.0335 164.693 45.6536 162.932C44.8897 159.392 44.5554 155.117 45.3263 151.863L43.6412 151.464C42.7853 155.077 43.1722 159.642 43.9608 163.297C44.3571 165.134 44.8641 166.784 45.3935 168.01C45.6568 168.62 45.9387 169.156 46.2337 169.563C46.3814 169.767 46.5482 169.961 46.7364 170.118C46.9201 170.272 47.171 170.429 47.4831 170.481L47.7654 168.772ZM45.3263 151.863C45.9759 149.121 47.5561 145.917 49.1982 143.423C50.0175 142.179 50.8305 141.146 51.5212 140.452C51.8686 140.103 52.1608 139.864 52.3864 139.726C52.6424 139.569 52.6816 139.621 52.5781 139.603L52.8604 137.895C52.3324 137.808 51.8384 138.031 51.4811 138.25C51.0933 138.488 50.6919 138.83 50.2939 139.23C49.4939 140.034 48.6093 141.169 47.752 142.471C46.0411 145.068 44.3525 148.461 43.6412 151.464L45.3263 151.863ZM52.5781 139.603C52.4397 139.581 52.4624 139.507 52.5995 139.709C52.7222 139.891 52.8639 140.19 53.0082 140.624C53.2943 141.484 53.536 142.703 53.7104 144.129C54.0584 146.976 54.1196 150.487 53.8108 153.248L55.5318 153.441C55.8574 150.528 55.7914 146.881 55.4293 143.919C55.2486 142.441 54.9895 141.093 54.6513 140.077C54.4834 139.572 54.2821 139.106 54.0337 138.739C53.7998 138.393 53.4233 137.988 52.8604 137.895L52.5781 139.603ZM53.8108 153.248C53.4409 156.557 52.1381 160.608 50.7069 163.806C49.9921 165.404 49.2613 166.752 48.6232 167.67C48.3013 168.132 48.0269 168.45 47.8143 168.635C47.5558 168.861 47.5665 168.739 47.7654 168.772L47.4831 170.481C48.1065 170.584 48.6318 170.22 48.9519 169.941C49.3179 169.622 49.6861 169.174 50.0447 168.659C50.7673 167.62 51.5486 166.165 52.2875 164.514C53.7639 161.214 55.1356 156.984 55.5318 153.441L53.8108 153.248Z" fill="#7C7C7C"/>
<path d="M31.9214 129.016C28.7145 135.304 29.4343 146.644 31.1113 147.351C32.7882 148.057 39.6621 139.747 41.9837 133.253C43.9061 127.876 44.9333 119.215 43.2564 118.509C41.5795 117.802 34.6041 123.756 31.9214 129.016Z" fill="#7C7C7C"/>
<path d="M31.1113 147.351L31.4474 146.553L31.4474 146.553L31.1113 147.351ZM31.9214 129.016L32.6927 129.409L31.9214 129.016ZM43.2564 118.509L43.5926 117.711L43.2564 118.509ZM41.9837 133.253L41.1684 132.962L41.1684 132.962L41.9837 133.253ZM31.4474 146.553C31.5654 146.603 31.4856 146.628 31.3238 146.265C31.186 145.956 31.0483 145.499 30.9283 144.902C30.6896 143.713 30.5452 142.093 30.5507 140.279C30.5618 136.63 31.178 132.379 32.6927 129.409L31.1501 128.623C29.4579 131.941 28.8305 136.504 28.8191 140.274C28.8133 142.169 28.9629 143.91 29.2305 145.243C29.3637 145.906 29.5323 146.5 29.7423 146.971C29.9283 147.388 30.2379 147.922 30.7751 148.149L31.4474 146.553ZM32.6927 129.409C33.9699 126.905 36.3039 124.183 38.5449 122.169C39.6624 121.164 40.7266 120.363 41.5898 119.862C42.0237 119.61 42.3779 119.451 42.6435 119.372C42.9386 119.285 42.9901 119.336 42.9202 119.307L43.5926 117.711C43.1034 117.505 42.5701 117.588 42.1523 117.711C41.7049 117.844 41.2182 118.075 40.7203 118.364C39.7202 118.945 38.5585 119.828 37.3872 120.881C35.0505 122.981 32.5556 125.867 31.1501 128.623L32.6927 129.409ZM42.9202 119.307C42.8195 119.264 42.867 119.223 42.9604 119.452C43.0463 119.662 43.1242 119.991 43.1746 120.449C43.2748 121.36 43.2491 122.61 43.1081 124.045C42.8265 126.91 42.1026 130.349 41.1684 132.962L42.799 133.545C43.7872 130.781 44.538 127.201 44.8315 124.214C44.9779 122.724 45.0148 121.34 44.896 120.26C44.8369 119.723 44.735 119.217 44.5635 118.797C44.3997 118.396 44.1125 117.93 43.5926 117.711L42.9202 119.307ZM41.1684 132.962C40.0497 136.091 37.8093 139.709 35.627 142.464C34.5373 143.84 33.4875 144.969 32.6294 145.7C32.1969 146.069 31.8449 146.309 31.5849 146.436C31.2786 146.586 31.2919 146.487 31.4474 146.553L30.7751 148.149C31.3498 148.391 31.9447 148.187 32.3445 147.992C32.7904 147.775 33.2687 147.431 33.7527 147.018C34.7277 146.187 35.8559 144.965 36.9845 143.539C39.2388 140.693 41.5961 136.909 42.799 133.545L41.1684 132.962Z" fill="#7C7C7C"/>
<path d="M30.9718 100.24C26.775 105.915 25.6211 117.219 27.1591 118.192C28.6971 119.164 36.8436 112.096 40.2008 106.073C42.9808 101.085 45.4176 92.7109 43.8796 91.7383C42.3416 90.7657 34.4826 95.4916 30.9718 100.24Z" fill="#7C7C7C"/>
<path d="M27.1591 118.192L26.6964 118.924L26.6964 118.924L27.1591 118.192ZM30.9718 100.24L30.2756 99.7247L30.9718 100.24ZM43.8796 91.7383L44.3424 91.0065L43.8796 91.7383ZM40.2008 106.073L40.9571 106.494L40.9571 106.494L40.2008 106.073ZM27.6219 117.46C27.7301 117.528 27.6472 117.54 27.5472 117.156C27.4621 116.829 27.4014 116.355 27.3812 115.746C27.3411 114.534 27.4649 112.913 27.7685 111.124C28.3793 107.527 29.6857 103.435 31.668 100.754L30.2756 99.7247C28.0611 102.72 26.6922 107.118 26.0613 110.834C25.7441 112.703 25.6055 114.445 25.6505 115.803C25.6728 116.479 25.7415 117.093 25.8713 117.592C25.9862 118.034 26.2037 118.612 26.6964 118.924L27.6219 117.46ZM31.668 100.754C33.3394 98.4939 36.0891 96.1928 38.6307 94.574C39.8981 93.7668 41.0795 93.1512 42.0134 92.7987C42.4827 92.6215 42.8583 92.5228 43.1332 92.489C43.4387 92.4514 43.481 92.5107 43.4169 92.4701L44.3424 91.0065C43.8937 90.7228 43.3541 90.717 42.9216 90.7703C42.4586 90.8273 41.9405 90.9753 41.4019 91.1786C40.3199 91.587 39.0288 92.2673 37.7004 93.1134C35.0502 94.8014 32.115 97.2372 30.2756 99.7247L31.668 100.754ZM43.4169 92.4701C43.3245 92.4117 43.3781 92.379 43.4327 92.6201C43.4828 92.8416 43.5057 93.1784 43.4801 93.6389C43.4292 94.5535 43.1984 95.7822 42.8234 97.1748C42.0748 99.9546 40.7954 103.228 39.4445 105.651L40.9571 106.494C42.3862 103.93 43.7152 100.523 44.4955 97.6251C44.8849 96.179 45.1487 94.82 45.2091 93.7351C45.2391 93.1958 45.2217 92.6798 45.1216 92.2377C45.0259 91.8152 44.8192 91.3081 44.3424 91.0065L43.4169 92.4701ZM39.4445 105.651C37.8268 108.554 35.0222 111.755 32.4166 114.114C31.1155 115.292 29.8945 116.233 28.9279 116.813C28.4407 117.106 28.054 117.285 27.7766 117.367C27.45 117.464 27.4793 117.37 27.6219 117.46L26.6964 118.924C27.2235 119.257 27.8438 119.154 28.2702 119.027C28.7458 118.886 29.2741 118.625 29.8194 118.298C30.9177 117.638 32.2315 116.618 33.5789 115.398C36.2704 112.96 39.2176 109.615 40.9571 106.494L39.4445 105.651Z" fill="#7C7C7C"/>
<path d="M45.9881 200.875C51.8472 201.653 60.2314 196.119 60.3164 194.389C60.4014 192.659 53.4914 187.808 47.7198 187.888C42.9406 187.954 34.2492 191.379 34.1642 193.109C34.0793 194.838 41.0867 200.225 45.9881 200.875Z" fill="#7C7C7C"/>
<path d="M60.3164 194.389L61.1812 194.432L61.1812 194.432L60.3164 194.389ZM45.9881 200.875L46.102 200.017L45.9881 200.875ZM34.1642 193.109L33.2994 193.066L33.2994 193.066L34.1642 193.109ZM47.7198 187.888L47.7078 187.022L47.7078 187.022L47.7198 187.888ZM59.4516 194.347C59.455 194.278 59.4649 194.371 59.2369 194.66C59.0367 194.914 58.7261 195.227 58.3076 195.58C57.4738 196.283 56.2883 197.079 54.9125 197.807C52.1266 199.282 48.7628 200.37 46.102 200.017L45.8742 201.734C49.0725 202.158 52.8304 200.868 55.7226 199.338C57.1858 198.563 58.4785 197.701 59.4238 196.904C59.8947 196.507 60.2989 196.11 60.5964 195.733C60.866 195.391 61.1566 194.933 61.1812 194.432L59.4516 194.347ZM46.102 200.017C43.8535 199.719 41.012 198.3 38.7021 196.687C37.5583 195.888 36.5851 195.069 35.9139 194.364C35.5769 194.01 35.3347 193.703 35.1845 193.459C35.0173 193.187 35.0316 193.1 35.029 193.151L33.2994 193.066C33.2757 193.55 33.4903 194.01 33.7092 194.366C33.9451 194.75 34.2747 195.153 34.6593 195.557C35.4313 196.369 36.5003 197.261 37.7105 198.107C40.1084 199.781 43.2214 201.382 45.8742 201.734L46.102 200.017ZM35.029 193.151C35.0235 193.264 34.9759 193.218 35.1923 192.998C35.3813 192.806 35.6842 192.571 36.1061 192.306C36.9448 191.78 38.1339 191.211 39.4953 190.682C42.2332 189.618 45.4902 188.785 47.7317 188.754L47.7078 187.022C45.1701 187.057 41.6919 187.97 38.868 189.068C37.4486 189.619 36.1503 190.234 35.186 190.839C34.7065 191.14 34.2791 191.457 33.9579 191.783C33.6641 192.082 33.3263 192.521 33.2994 193.066L35.029 193.151ZM47.7317 188.754C50.4006 188.717 53.4129 189.831 55.7788 191.208C56.954 191.892 57.9311 192.619 58.5961 193.257C58.93 193.577 59.1652 193.857 59.3085 194.079C59.4668 194.325 59.4489 194.401 59.4516 194.347L61.1812 194.432C61.2051 193.944 60.9899 193.491 60.764 193.141C60.5232 192.767 60.1873 192.384 59.7952 192.008C59.0082 191.252 57.913 190.447 56.6498 189.712C54.139 188.25 50.8105 186.979 47.7078 187.022L47.7317 188.754Z" fill="#7C7C7C"/>
<path d="M26.8602 179.246C32.2247 181.727 41.8735 178.93 42.4679 177.303C43.0623 175.677 37.9029 168.993 32.3675 167.357C27.7839 166.002 18.4677 166.694 17.8733 168.321C17.279 169.947 22.3726 177.17 26.8602 179.246Z" fill="#7C7C7C"/>
<path d="M42.4679 177.303L43.2811 177.6L43.2811 177.6L42.4679 177.303ZM26.8602 179.246L27.2237 178.46L26.8602 179.246ZM17.8733 168.321L17.0601 168.024L17.0601 168.024L17.8733 168.321ZM32.3675 167.357L32.6129 166.527L32.6129 166.527L32.3675 167.357ZM41.6546 177.006C41.6783 176.941 41.6601 177.033 41.3566 177.241C41.0901 177.424 40.7007 177.631 40.1963 177.844C39.1915 178.268 37.8231 178.677 36.2931 178.964C33.1952 179.545 29.6599 179.587 27.2237 178.46L26.4968 180.032C29.4251 181.386 33.3964 181.27 36.6126 180.666C38.2397 180.36 39.7302 179.92 40.8694 179.44C41.4369 179.2 41.9407 178.941 42.3366 178.669C42.6955 178.423 43.1088 178.072 43.2811 177.6L41.6546 177.006ZM27.2237 178.46C25.165 177.508 22.8723 175.31 21.1451 173.084C20.2899 171.982 19.6035 170.911 19.1718 170.038C18.9551 169.6 18.8146 169.236 18.7437 168.958C18.6647 168.649 18.7042 168.57 18.6866 168.618L17.0601 168.024C16.8939 168.478 16.9625 168.981 17.0658 169.386C17.1772 169.823 17.3722 170.306 17.6196 170.806C18.1161 171.81 18.8721 172.979 19.7769 174.146C21.5699 176.457 24.0679 178.908 26.4968 180.032L27.2237 178.46ZM18.6866 168.618C18.6477 168.724 18.616 168.666 18.888 168.52C19.1255 168.392 19.4844 168.258 19.9659 168.13C20.9228 167.877 22.2274 167.686 23.6845 167.585C26.6147 167.381 29.9722 167.552 32.122 168.187L32.6129 166.527C30.1791 165.807 26.5867 165.647 23.5644 165.857C22.0451 165.963 20.6228 166.165 19.5225 166.456C18.9754 166.601 18.4731 166.777 18.0695 166.994C17.7003 167.192 17.2475 167.511 17.0601 168.024L18.6866 168.618ZM32.122 168.187C34.6817 168.944 37.2276 170.902 39.0784 172.919C39.9977 173.921 40.7152 174.905 41.161 175.712C41.3847 176.117 41.5265 176.453 41.5974 176.708C41.6757 176.989 41.6358 177.057 41.6546 177.006L43.2811 177.6C43.4485 177.142 43.3774 176.645 43.2657 176.244C43.1466 175.815 42.9396 175.35 42.6767 174.874C42.1493 173.919 41.3424 172.825 40.3543 171.748C38.3901 169.608 35.5887 167.406 32.6129 166.527L32.122 168.187Z" fill="#7C7C7C"/>
<path d="M8.97292 143.526C12.0657 148.562 21.6491 151.576 23.0448 150.551C24.4404 149.526 23.8454 141.104 20.1424 136.676C17.0761 133.01 8.93566 128.427 7.54003 129.452C6.1444 130.477 6.38563 139.312 8.97292 143.526Z" fill="#7C7C7C"/>
<path d="M23.0448 150.551L23.5573 151.249L23.5573 151.249L23.0448 150.551ZM8.97292 143.526L9.71076 143.073L8.97292 143.526ZM7.54003 129.452L7.02744 128.754L7.02744 128.754L7.54003 129.452ZM20.1424 136.676L20.8066 136.121L20.8066 136.121L20.1424 136.676ZM22.5322 149.853C22.5878 149.813 22.5216 149.879 22.1536 149.885C21.8304 149.889 21.3916 149.846 20.8537 149.744C19.7823 149.54 18.4165 149.123 16.9835 148.515C14.082 147.283 11.1153 145.36 9.71076 143.073L8.23508 143.979C9.92336 146.728 13.2948 148.83 16.307 150.109C17.831 150.755 19.316 151.214 20.5306 151.445C21.1358 151.56 21.6988 151.623 22.1789 151.616C22.6142 151.61 23.1528 151.546 23.5573 151.249L22.5322 149.853ZM9.71076 143.073C8.52382 141.14 7.83177 138.04 7.62642 135.23C7.52474 133.839 7.54618 132.567 7.6701 131.601C7.73231 131.116 7.81705 130.735 7.91191 130.465C8.01752 130.163 8.09399 130.119 8.05261 130.15L7.02744 128.754C6.63716 129.041 6.41587 129.497 6.27765 129.892C6.12868 130.317 6.02351 130.827 5.9525 131.381C5.80998 132.492 5.79175 133.884 5.89934 135.356C6.11251 138.274 6.83473 141.698 8.23508 143.979L9.71076 143.073ZM8.05261 130.15C7.96135 130.217 7.96746 130.15 8.27468 130.18C8.54301 130.205 8.9163 130.292 9.38781 130.452C10.325 130.771 11.517 131.335 12.7864 132.057C15.3391 133.51 18.04 135.512 19.4782 137.232L20.8066 136.121C19.1784 134.174 16.276 132.051 13.643 130.552C12.3195 129.799 11.0231 129.18 9.94565 128.813C9.40982 128.631 8.89422 128.499 8.43826 128.456C8.02119 128.416 7.46761 128.431 7.02744 128.754L8.05261 130.15ZM19.4782 137.232C21.1905 139.279 22.226 142.32 22.6502 145.024C22.8609 146.367 22.9136 147.584 22.8379 148.502C22.7999 148.964 22.7317 149.322 22.6496 149.573C22.5588 149.851 22.488 149.886 22.5322 149.853L23.5573 151.249C23.9505 150.96 24.1663 150.507 24.2957 150.111C24.4337 149.688 24.5191 149.186 24.5637 148.644C24.6533 147.557 24.5874 146.199 24.361 144.756C23.9108 141.886 22.7972 138.501 20.8066 136.121L19.4782 137.232Z" fill="#7C7C7C"/>
<path d="M6.05087 106.499C8.30709 112.868 16.4903 118.823 18.0766 118.128C19.6628 117.434 20.5126 108.143 17.5352 102.251C15.0697 97.3726 7.63716 89.9948 6.05095 90.6896C4.46475 91.3844 4.16344 101.171 6.05087 106.499Z" fill="#7C7C7C"/>
<path d="M18.0766 118.128L17.7292 117.335L17.7292 117.335L18.0766 118.128ZM6.05087 106.499L5.23472 106.788L5.23472 106.788L6.05087 106.499ZM6.05095 90.6896L5.70356 89.8965L6.05095 90.6896ZM17.5352 102.251L18.3079 101.861L17.5352 102.251ZM17.7292 117.335C17.8235 117.294 17.7775 117.355 17.4353 117.257C17.1389 117.172 16.7422 117.003 16.2607 116.74C15.3026 116.217 14.1115 115.378 12.8833 114.309C10.4121 112.159 7.92482 109.196 6.86702 106.21L5.23472 106.788C6.43315 110.171 9.16556 113.37 11.7466 115.616C13.0445 116.745 14.3377 117.663 15.4306 118.26C15.9746 118.557 16.495 118.789 16.9586 118.922C17.3764 119.041 17.933 119.136 18.424 118.921L17.7292 117.335ZM6.86702 106.21C5.97074 103.679 5.57702 100.014 5.61408 96.8669C5.63254 95.2993 5.75758 93.9024 5.96505 92.875C6.06942 92.3582 6.18804 91.9688 6.30655 91.7077C6.44369 91.4056 6.50809 91.4347 6.39835 91.4827L5.70356 89.8965C5.19726 90.1183 4.90526 90.6052 4.72969 90.992C4.53549 91.4199 4.38508 91.9507 4.26763 92.5323C4.03147 93.7017 3.90173 95.2147 3.88252 96.8465C3.84423 100.098 4.24357 103.99 5.23472 106.788L6.86702 106.21ZM6.39835 91.4827C6.25432 91.5458 6.25058 91.4594 6.57555 91.5901C6.84874 91.7 7.21772 91.9091 7.67165 92.2265C8.57308 92.8569 9.68804 93.8282 10.8507 94.9923C13.1847 97.329 15.5883 100.318 16.7624 102.642L18.3079 101.861C17.0166 99.3055 14.4712 96.1666 12.076 93.7685C10.8741 92.5652 9.67938 91.5174 8.66403 90.8074C8.15958 90.4546 7.66839 90.1632 7.22187 89.9836C6.82713 89.8248 6.24414 89.6598 5.70356 89.8965L6.39835 91.4827ZM16.7624 102.642C18.1659 105.419 18.689 109.061 18.6515 112.128C18.6327 113.655 18.4753 114.998 18.2382 115.98C18.1191 116.473 17.9869 116.845 17.8594 117.095C17.7148 117.379 17.6444 117.372 17.7292 117.335L18.424 118.921C18.9052 118.711 19.2085 118.262 19.4023 117.881C19.6133 117.467 19.7845 116.954 19.9215 116.386C20.1968 115.246 20.3632 113.768 20.383 112.149C20.4225 108.924 19.8818 104.975 18.3079 101.861L16.7624 102.642Z" fill="#7C7C7C"/>
<path d="M33.4287 70.9607C28.7724 74.6016 26.6328 83.5362 27.8088 84.8074C28.9847 86.0787 37.2863 84.5382 41.269 80.3595C44.5669 76.8994 48.2038 68.294 47.0279 67.0228C45.852 65.7516 37.324 67.9149 33.4287 70.9607Z" fill="#7C7C7C"/>
<path d="M27.8088 84.8074L27.1732 85.3954L27.1732 85.3954L27.8088 84.8074ZM33.4287 70.9607L33.9621 71.6428L33.4287 70.9607ZM47.0279 67.0228L47.6635 66.4349L47.6635 66.4349L47.0279 67.0228ZM41.269 80.3595L41.8958 80.9569L41.269 80.3595ZM28.4444 84.2195C28.4883 84.2669 28.4203 84.2173 28.3813 83.8932C28.3465 83.6047 28.3473 83.2054 28.3975 82.7062C28.4975 81.712 28.7826 80.4277 29.2512 79.0519C30.1969 76.2756 31.8244 73.3143 33.9621 71.6428L32.8954 70.2786C30.3768 72.248 28.6063 75.5745 27.612 78.4935C27.1107 79.9654 26.7904 81.3805 26.6745 82.5329C26.6167 83.107 26.6069 83.6427 26.662 84.1003C26.7129 84.5224 26.8353 85.0301 27.1732 85.3954L28.4444 84.2195ZM33.9621 71.6428C35.7824 70.2195 38.765 68.9557 41.4782 68.2076C42.8268 67.8357 44.0651 67.6036 45.015 67.5372C45.4924 67.5039 45.8651 67.5148 46.1289 67.5571C46.4245 67.6044 46.4462 67.6691 46.3923 67.6108L47.6635 66.4349C47.3156 66.0587 46.8136 65.9129 46.4026 65.8471C45.9597 65.7763 45.4428 65.7715 44.8944 65.8098C43.7929 65.8867 42.4352 66.1474 41.0179 66.5382C38.1994 67.3154 34.9704 68.6561 32.8954 70.2786L33.9621 71.6428ZM46.3923 67.6108C46.3154 67.5276 46.382 67.5262 46.3876 67.8348C46.3926 68.1043 46.3483 68.485 46.242 68.9716C46.0307 69.9388 45.6052 71.1868 45.0302 72.5295C43.8739 75.2299 42.189 78.1393 40.6423 79.7622L41.8958 80.9569C43.6469 79.1197 45.4294 75.9964 46.6221 73.2112C47.2216 71.8111 47.6909 70.4532 47.9338 69.3412C48.0546 68.7882 48.1274 68.261 48.119 67.8031C48.1114 67.3842 48.0344 66.8358 47.6635 66.4349L46.3923 67.6108ZM40.6423 79.7622C38.8006 81.6944 35.896 83.0661 33.2566 83.7924C31.9456 84.1531 30.7428 84.3426 29.8213 84.3709C29.3588 84.3852 28.9949 84.3578 28.7357 84.3046C28.4494 84.2457 28.4071 84.1792 28.4444 84.2195L27.1732 85.3954C27.5044 85.7535 27.9788 85.9169 28.3871 86.0008C28.8226 86.0903 29.3313 86.1185 29.8746 86.1018C30.9649 86.0683 32.3069 85.8498 33.7161 85.462C36.5172 84.6912 39.7548 83.2032 41.8958 80.9569L40.6423 79.7622Z" fill="#7C7C7C"/>
<path d="M45.1105 43.9429C39.9845 46.2214 36.1182 54.1977 36.957 55.7128C37.7957 57.2278 45.9046 57.8897 50.5105 54.9251C54.3244 52.4702 59.527 45.1926 58.6883 43.6775C57.8496 42.1625 49.3987 42.0368 45.1105 43.9429Z" fill="#7C7C7C"/>
<path d="M36.957 55.7128L36.1994 56.1321L36.957 55.7128ZM45.1105 43.9429L44.7589 43.1517L45.1105 43.9429ZM58.6883 43.6775L59.4458 43.2582L58.6883 43.6775ZM50.5105 54.9251L50.9792 55.6531L50.9792 55.6531L50.5105 54.9251ZM37.7145 55.2934C37.739 55.3378 37.6876 55.2645 37.7181 54.9486C37.7455 54.6647 37.8291 54.285 37.9795 53.8232C38.2793 52.9029 38.8126 51.7537 39.5365 50.5643C40.9997 48.1607 43.1325 45.7697 45.4622 44.7341L44.7589 43.1517C41.9626 44.3946 39.5992 47.131 38.0574 49.6639C37.2789 50.9428 36.6824 52.2141 36.333 53.2868C36.1589 53.8213 36.0379 54.3311 35.9944 54.7823C35.954 55.2015 35.9652 55.709 36.1994 56.1321L37.7145 55.2934ZM45.4622 44.7341C47.451 43.8501 50.5002 43.4102 53.1985 43.3931C54.5383 43.3846 55.7449 43.4809 56.6465 43.6609C57.0994 43.7513 57.4452 43.857 57.683 43.9646C57.9466 44.0839 57.9622 44.1535 57.9308 44.0969L59.4458 43.2582C59.2048 42.8228 58.7728 42.557 58.397 42.387C57.9953 42.2052 57.5098 42.0674 56.9855 41.9627C55.9327 41.7526 54.6013 41.6525 53.1875 41.6615C50.3786 41.6793 47.0583 42.1296 44.7589 43.1517L45.4622 44.7341ZM57.9308 44.0969C57.8838 44.0119 57.9427 44.0362 57.885 44.3261C57.8339 44.5826 57.7141 44.9322 57.5141 45.3671C57.1163 46.2321 56.4595 47.3105 55.6423 48.4419C53.9972 50.7194 51.8179 53.0539 50.0419 54.197L50.9792 55.6531C53.0171 54.3414 55.346 51.8096 57.0461 49.4558C57.9014 48.2716 58.6263 47.0931 59.0873 46.0907C59.3167 45.5919 59.4955 45.1052 59.5833 44.6642C59.6645 44.2564 59.7026 43.7219 59.4458 43.2582L57.9308 44.0969ZM50.0419 54.197C47.9315 55.5554 44.9387 56.1178 42.316 56.133C41.0148 56.1405 39.8507 56.0128 38.9835 55.804C38.5484 55.6992 38.2138 55.5801 37.982 55.4629C37.7283 55.3345 37.6945 55.2573 37.7145 55.2934L36.1994 56.1321C36.4291 56.547 36.8322 56.8219 37.2004 57.0081C37.5907 57.2055 38.0632 57.3635 38.5781 57.4875C39.6112 57.7363 40.9195 57.8728 42.3261 57.8646C45.119 57.8484 48.4836 57.2594 50.9792 55.6531L50.0419 54.197Z" fill="#7C7C7C"/>
<path d="M10.694 64.6783C11.5006 72.1209 18.2006 80.7814 19.9065 80.4829C21.6123 80.1843 24.4894 70.4881 22.8717 63.354C21.5321 57.4467 15.8801 47.4754 14.1743 47.7739C12.4686 48.0724 10.0193 58.4521 10.694 64.6783Z" fill="#7C7C7C"/>
<path d="M19.9065 80.4829L20.0557 81.3358L20.0557 81.3358L19.9065 80.4829ZM10.694 64.6783L9.83322 64.7716L10.694 64.6783ZM14.1743 47.7739L14.0251 46.921L14.1743 47.7739ZM22.8717 63.354L23.7161 63.1626L22.8717 63.354ZM19.7572 79.63C19.8903 79.6067 19.8456 79.6735 19.5207 79.4655C19.2463 79.2898 18.8916 78.9949 18.475 78.5757C17.6465 77.7419 16.6601 76.5047 15.6889 75.0114C13.7378 72.0116 11.9377 68.1179 11.5548 64.585L9.83322 64.7716C10.2569 68.6813 12.2102 72.8391 14.2372 75.9556C15.255 77.5205 16.3139 78.8575 17.2466 79.7963C17.7107 80.2633 18.1656 80.6541 18.5872 80.924C18.9583 81.1616 19.4962 81.4337 20.0557 81.3358L19.7572 79.63ZM11.5548 64.585C11.2313 61.5997 11.6569 57.5493 12.3876 54.1871C12.7519 52.5106 13.1838 51.0443 13.6164 49.9958C13.8342 49.4681 14.0385 49.0797 14.2149 48.8296C14.4249 48.5319 14.4747 48.6003 14.3236 48.6268L14.0251 46.921C13.4475 47.0221 13.0476 47.4802 12.7998 47.8315C12.5184 48.2305 12.2568 48.7507 12.0156 49.3353C11.5303 50.5116 11.0722 52.0853 10.6954 53.8193C9.94369 57.2782 9.48199 61.5307 9.83322 64.7716L11.5548 64.585ZM14.3236 48.6268C14.2085 48.6469 14.1538 48.6119 14.1971 48.6305C14.2372 48.6477 14.3187 48.6931 14.4429 48.7922C14.6916 48.9906 15.0117 49.3231 15.3893 49.7936C16.1389 50.7276 17.0209 52.0858 17.9054 53.6607C19.6791 56.8191 21.3835 60.7064 22.0273 63.5455L23.7161 63.1626C23.0203 60.0943 21.2289 56.0423 19.4153 52.8128C18.5061 51.1938 17.5715 49.7459 16.7398 48.7097C16.3267 48.195 15.9149 47.7513 15.5228 47.4385C15.3266 47.282 15.1104 47.138 14.8797 47.039C14.6521 46.9414 14.3534 46.8635 14.0251 46.921L14.3236 48.6268ZM22.0273 63.5455C22.7985 66.9468 22.5037 71.0176 21.7894 74.2975C21.4333 75.9327 20.981 77.3334 20.5291 78.3246C20.3018 78.8232 20.0881 79.1883 19.906 79.4229C19.6942 79.6958 19.635 79.6514 19.7572 79.63L20.0557 81.3358C20.6044 81.2397 21.0083 80.827 21.274 80.4846C21.5694 80.104 21.8477 79.6068 22.1048 79.0429C22.6215 77.9093 23.1072 76.384 23.4814 74.666C24.2276 71.2397 24.5625 66.8954 23.7161 63.1626L22.0273 63.5455Z" fill="#7C7C7C"/>
<path d="M21.0841 35.2396C21.8907 42.6822 28.5908 51.3427 30.2966 51.0442C32.0024 50.7456 34.8795 41.0494 33.2618 33.9153C31.9222 28.008 26.2702 18.0366 24.5644 18.3352C22.8587 18.6337 20.4094 29.0134 21.0841 35.2396Z" fill="#7C7C7C"/>
<path d="M30.2966 51.0442L30.4458 51.897L30.4458 51.897L30.2966 51.0442ZM21.0841 35.2396L20.2233 35.3328L21.0841 35.2396ZM24.5644 18.3352L24.4152 17.4823L24.5644 18.3352ZM33.2618 33.9153L34.1062 33.7238L33.2618 33.9153ZM30.1473 50.1913C30.2804 50.168 30.2357 50.2348 29.9108 50.0268C29.6364 49.8511 29.2817 49.5562 28.8651 49.137C28.0366 48.3032 27.0502 47.066 26.079 45.5727C24.1279 42.5729 22.3278 38.6792 21.9449 35.1463L20.2233 35.3328C20.647 39.2426 22.6003 43.4004 24.6273 46.5169C25.6451 48.0818 26.704 49.4188 27.6367 50.3575C28.1008 50.8245 28.5557 51.2154 28.9773 51.4853C29.3484 51.7228 29.8863 51.995 30.4458 51.897L30.1473 50.1913ZM21.9449 35.1463C21.6214 32.161 22.047 28.1106 22.7777 24.7484C23.142 23.0719 23.5739 21.6055 24.0065 20.5571C24.2243 20.0294 24.4286 19.641 24.605 19.3909C24.815 19.0931 24.8648 19.1616 24.7137 19.188L24.4152 17.4823C23.8376 17.5834 23.4377 18.0415 23.1899 18.3928C22.9085 18.7918 22.6469 19.312 22.4057 19.8966C21.9204 21.0729 21.4623 22.6466 21.0855 24.3806C20.3338 27.8394 19.8721 32.092 20.2233 35.3328L21.9449 35.1463ZM24.7137 19.188C24.5986 19.2082 24.5439 19.1732 24.5872 19.1918C24.6273 19.209 24.7088 19.2544 24.833 19.3535C25.0817 19.5519 25.4018 19.8844 25.7794 20.3549C26.529 21.2889 27.411 22.6471 28.2955 24.222C30.0692 27.3804 31.7736 31.2677 32.4174 34.1068L34.1062 33.7238C33.4104 30.6556 31.619 26.6036 29.8054 23.3741C28.8962 21.7551 27.9616 20.3072 27.1299 19.2709C26.7169 18.7563 26.305 18.3126 25.9129 17.9998C25.7167 17.8432 25.5005 17.6992 25.2698 17.6003C25.0422 17.5027 24.7435 17.4248 24.4152 17.4823L24.7137 19.188ZM32.4174 34.1068C33.1886 37.5081 32.8938 41.5789 32.1795 44.8588C31.8234 46.4939 31.3711 47.8946 30.9192 48.8859C30.6919 49.3845 30.4782 49.7496 30.2961 49.9842C30.0843 50.2571 30.0251 50.2127 30.1473 50.1913L30.4458 51.897C30.9945 51.801 31.3984 51.3883 31.6641 51.0459C31.9595 50.6653 32.2378 50.1681 32.4949 49.6042C33.0117 48.4705 33.4973 46.9453 33.8715 45.2273C34.6178 41.801 34.9526 37.4567 34.1062 33.7238L32.4174 34.1068Z" fill="#7C7C7C"/>
<path d="M45.7043 14.0392C41.6424 20.3276 41.3904 31.2744 42.9032 32.1171C44.4161 32.9598 52.7586 27.2416 55.9962 20.6819C58.6771 15.2502 60.5688 3.94555 59.056 3.10287C57.5431 2.26018 49.1023 8.77868 45.7043 14.0392Z" fill="#7C7C7C"/>
<path d="M42.9032 32.1171L42.4819 32.8735L42.4819 32.8735L42.9032 32.1171ZM45.7043 14.0392L44.977 13.5694L45.7043 14.0392ZM59.056 3.10287L59.4773 2.34646L59.056 3.10287ZM55.9962 20.6819L56.7726 21.0651L55.9962 20.6819ZM43.3246 31.3607C43.4426 31.4264 43.3659 31.4501 43.2445 31.084C43.142 30.7746 43.0523 30.3221 42.9929 29.7341C42.8747 28.5647 42.888 26.9824 43.0743 25.2109C43.4487 21.652 44.5035 17.4941 46.4316 14.509L44.977 13.5694C42.8432 16.8728 41.741 21.3324 41.3521 25.0297C41.1568 26.8862 41.1369 28.5917 41.27 29.9083C41.3362 30.5633 41.4433 31.1534 41.6007 31.6286C41.7393 32.0469 41.9857 32.5971 42.4819 32.8735L43.3246 31.3607ZM46.4316 14.509C48.0608 11.9868 50.9429 9.10909 53.6283 6.95813C54.9674 5.88561 56.2266 5.01885 57.223 4.47708C57.7245 4.20437 58.1279 4.03151 58.4224 3.94838C58.7731 3.84942 58.7687 3.93394 58.6346 3.85928L59.4773 2.34646C58.9651 2.06113 58.3659 2.16502 57.9521 2.28179C57.4822 2.41439 56.9514 2.65364 56.3958 2.95573C55.2779 3.56356 53.9308 4.4972 52.5458 5.60654C49.7831 7.8193 46.7458 10.8312 44.977 13.5694L46.4316 14.509ZM58.6346 3.85928C58.5325 3.80241 58.5121 3.74083 58.534 3.78254C58.5544 3.82115 58.589 3.90771 58.6231 4.06289C58.6912 4.37372 58.7304 4.83351 58.7273 5.43681C58.7211 6.63441 58.5505 8.24486 58.2453 10.0252C57.6333 13.5954 56.5082 17.6882 55.2198 20.2987L56.7726 21.0651C58.1651 18.2439 59.3263 13.9685 59.9521 10.3178C60.2658 8.48767 60.4521 6.77448 60.4589 5.44572C60.4623 4.78584 60.422 4.18176 60.3145 3.69186C60.2607 3.44668 60.1835 3.19865 60.0667 2.97643C59.9514 2.75732 59.7685 2.50866 59.4773 2.34646L58.6346 3.85928ZM55.2198 20.2987C53.6762 23.4261 50.8829 26.402 48.262 28.4994C46.9554 29.545 45.7217 30.3479 44.7463 30.8331C44.2557 31.0771 43.8598 31.2261 43.5706 31.2936C43.2342 31.3721 43.2162 31.3003 43.3246 31.3607L42.4819 32.8735C42.9685 33.1445 43.5421 33.0784 43.9642 32.9799C44.4335 32.8704 44.9627 32.6596 45.5176 32.3835C46.6331 31.8286 47.9711 30.95 49.3439 29.8514C52.0819 27.6605 55.0786 24.4974 56.7726 21.0651L55.2198 20.2987Z" fill="#7C7C7C"/>
</g>
</svg>
